<svg width="412" height="254" viewBox="0 0 412 254" fill="none" xmlns="http://www.w3.org/2000/svg">
<g opacity="0.8" clip-path="url(#clip0_78_2498)">
<path d="M205.721 123.987C197.825 123.776 189.989 122.543 182.41 120.32C174.926 117.827 167.853 114.239 161.422 109.671C155.373 105.564 149.688 99.9899 144.525 93.0547C139.209 85.8496 135.606 79.0377 133.517 72.2316C132.952 70.9403 132.531 69.5904 132.262 68.2066C132.139 67.6726 132.021 67.1446 131.88 66.6165C131.74 66.0885 131.622 65.6719 131.493 65.2084C131.037 63.764 130.736 62.2751 130.595 60.7668C130.49 59.8456 130.326 58.8893 130.161 57.9329C129.997 56.9766 129.827 55.9967 129.715 54.9993C129.715 52.9692 129.598 50.9919 129.445 49.0498L129.322 47.5536V-208.262L129.445 -209.822C129.598 -211.753 129.686 -213.724 129.71 -215.69C129.827 -216.746 129.997 -217.714 130.161 -218.682C130.326 -219.65 130.49 -220.595 130.601 -221.557C130.741 -223.054 131.042 -224.531 131.499 -225.963C131.628 -226.427 131.757 -226.89 131.875 -227.354C131.992 -227.817 132.139 -228.422 132.262 -228.95C132.54 -230.372 132.975 -231.76 133.558 -233.086C135.606 -239.787 139.209 -246.581 144.525 -253.798C149.682 -260.733 155.367 -266.325 161.428 -270.42C167.851 -274.985 174.916 -278.572 182.392 -281.063C189.977 -283.289 197.819 -284.521 205.721 -284.73C213.632 -284.523 221.483 -283.292 229.079 -281.069C236.564 -278.575 243.638 -274.987 250.072 -270.42C256.121 -266.313 261.807 -260.739 266.964 -253.804C272.28 -246.593 275.882 -239.787 277.977 -232.981C278.543 -231.683 278.964 -230.328 279.233 -228.938C279.35 -228.41 279.473 -227.888 279.608 -227.366C279.743 -226.843 279.86 -226.439 279.989 -225.987C280.452 -224.534 280.755 -223.035 280.893 -221.516C280.999 -220.601 281.163 -219.65 281.327 -218.7C281.491 -217.749 281.662 -216.752 281.773 -215.766C281.808 -213.718 281.896 -211.741 282.043 -209.816L282.166 -208.32V47.4949L282.037 49.0557C281.89 50.986 281.802 52.9633 281.773 54.923C281.656 55.985 281.486 56.959 281.321 57.9329C281.157 58.9069 280.993 59.8339 280.881 60.7961C280.744 62.2972 280.443 63.7787 279.984 65.2143C279.854 65.6719 279.725 66.1295 279.608 66.593C279.491 67.0566 279.344 67.6433 279.227 68.1714C278.948 69.5974 278.513 70.9885 277.93 72.3196C275.876 79.0142 272.28 85.8144 266.958 93.0371C261.801 99.9664 256.115 105.558 250.054 109.653C243.63 114.22 236.563 117.807 229.084 120.297C221.502 122.524 213.662 123.759 205.762 123.97L205.721 123.987ZM205.721 -283.158C197.97 -282.948 190.279 -281.738 182.838 -279.555C175.515 -277.109 168.595 -273.591 162.303 -269.118C156.377 -265.11 150.814 -259.642 145.763 -252.847C140.558 -245.807 137.038 -239.136 134.996 -232.5C134.45 -231.244 134.041 -229.934 133.776 -228.592C133.652 -228.04 133.523 -227.495 133.377 -226.955C133.23 -226.415 133.124 -226.01 132.995 -225.535C132.564 -224.201 132.281 -222.824 132.15 -221.428C132.033 -220.389 131.863 -219.404 131.693 -218.418C131.523 -217.432 131.364 -216.54 131.253 -215.59C131.253 -213.671 131.147 -211.665 130.994 -209.723L130.871 -208.221V47.5125L130.994 48.95C131.147 50.9332 131.235 52.9398 131.258 54.923C131.364 55.7914 131.528 56.7301 131.693 57.6689C131.857 58.6077 132.033 59.6403 132.144 60.6378C132.272 62.0493 132.556 63.4424 132.989 64.7918C133.124 65.2671 133.259 65.7482 133.382 66.2293C133.506 66.7104 133.652 67.3089 133.776 67.8546C134.027 69.1646 134.421 70.4434 134.949 71.6683C137.026 78.4157 140.552 85.0693 145.763 92.1335C150.814 98.9279 156.377 104.396 162.291 108.392C168.593 112.873 175.526 116.395 182.862 118.842C190.303 121.019 197.994 122.228 205.744 122.438C213.495 122.227 221.186 121.016 228.627 118.836C235.95 116.39 242.871 112.873 249.162 108.398C255.088 104.396 260.651 98.922 265.697 92.1277C270.913 85.0869 274.433 78.4099 276.469 71.7739C277.024 70.5137 277.435 69.195 277.695 67.8428C277.824 67.2971 277.948 66.7574 278.094 66.2176C278.241 65.6778 278.347 65.2847 278.476 64.8153C278.906 63.481 279.189 62.1038 279.321 60.7082C279.438 59.6696 279.608 58.6898 279.778 57.71C279.948 56.7301 280.101 55.8206 280.218 54.8643C280.218 52.9457 280.33 50.9391 280.476 48.997L280.6 47.4949V-208.232L280.476 -209.67C280.33 -211.635 280.236 -213.642 280.212 -215.643C280.101 -216.517 279.943 -217.462 279.778 -218.406C279.614 -219.351 279.438 -220.366 279.326 -221.34C279.196 -222.759 278.911 -224.16 278.476 -225.517C278.339 -225.987 278.21 -226.456 278.088 -226.926C277.948 -227.454 277.824 -227.999 277.695 -228.539C277.446 -229.856 277.053 -231.14 276.522 -232.37C274.439 -239.112 270.919 -245.771 265.702 -252.836C260.651 -259.624 255.088 -265.098 249.18 -269.094C242.876 -273.576 235.942 -277.098 228.603 -279.544C221.156 -281.732 213.457 -282.946 205.697 -283.158H205.721Z" fill="white"/>
<path d="M205.72 253.278C184.426 253.078 163.275 249.766 142.94 243.445C122.647 236.855 103.485 227.189 86.1265 214.783C69.2345 202.943 53.9794 187.987 40.8366 170.32C27.5236 152.396 17.5316 133.468 11.1479 114.059C9.54087 109.69 8.19681 105.228 7.12294 100.699L6.30151 97.5421C4.98195 92.7961 3.95326 87.974 3.22116 83.1027L2.73418 79.9754C2.08877 75.8683 1.41989 71.5675 0.973977 67.3431C0.633672 62.0625 0.35204 56.7056 0.140816 51.5013L0 47.5409V-208.233L0.146683 -212.164C0.357907 -217.392 0.639539 -222.725 0.979844 -228.006C1.41989 -232.266 2.08877 -236.543 2.74004 -240.674L3.22116 -243.848C3.95421 -248.717 4.98488 -253.538 6.30738 -258.281L7.12294 -261.45C8.19384 -265.982 9.53796 -270.445 11.1479 -274.815C17.514 -294.178 27.506 -313.117 40.8132 -331.036C53.9794 -348.703 69.2345 -363.664 86.1089 -375.505C103.465 -387.911 122.624 -397.576 142.916 -404.161C163.257 -410.486 184.414 -413.801 205.714 -414C227.009 -413.8 248.159 -410.487 268.495 -404.166C288.79 -397.577 307.953 -387.91 325.314 -375.505C342.2 -363.664 357.432 -348.703 370.586 -331.036C383.899 -313.123 393.886 -294.189 400.269 -274.774C401.885 -270.395 403.233 -265.922 404.306 -261.379L405.127 -258.211C406.446 -253.489 407.48 -248.693 408.225 -243.848L408.73 -240.568C409.37 -236.461 410.027 -232.26 410.49 -228.088C410.801 -222.725 411.083 -217.445 411.3 -212.164L411.447 -208.233V47.5115L411.3 51.472C411.089 56.6998 410.807 62.0332 410.467 67.3138C410.027 71.5734 409.364 75.8507 408.707 79.9872L408.22 83.1203C407.586 88.0254 406.33 92.8894 405.127 97.595L404.329 100.664C403.252 105.22 401.9 109.707 400.281 114.1C393.909 133.462 383.923 152.402 370.61 170.32C357.455 187.993 342.218 202.949 325.332 214.789C307.975 227.195 288.816 236.861 268.524 243.451C248.189 249.771 227.038 253.084 205.744 253.284L205.72 253.278ZM205.72 -412.451C184.575 -412.257 163.572 -408.967 143.38 -402.688C123.242 -396.148 104.227 -386.555 87.0008 -374.243C70.2437 -362.491 55.1529 -347.646 42.0746 -330.097C28.8614 -312.313 18.9515 -293.532 12.6206 -274.276C11.0236 -269.941 9.6874 -265.515 8.61911 -261.021L7.80942 -257.871C6.63595 -253.218 5.37448 -248.413 4.75254 -243.601L4.26555 -240.445C3.62014 -236.338 2.95713 -232.072 2.50535 -227.883C2.16505 -222.643 1.88341 -217.322 1.67806 -212.117L1.53137 -208.186V47.5115L1.67806 51.4133C1.88341 56.6293 2.16505 61.9451 2.50535 67.214C2.93953 71.368 3.60254 75.6277 4.26555 79.7407L4.75254 82.8856C5.37448 87.7085 6.61248 92.5139 7.80355 97.1608L8.61911 100.312C9.68036 104.794 11.0107 109.208 12.603 113.531C18.9515 132.834 28.8614 151.609 42.0746 169.393C55.1294 186.925 70.2378 201.769 87.0008 213.516C104.229 225.833 123.248 235.428 143.392 241.966C163.58 248.244 184.579 251.534 205.72 251.729C226.865 251.533 247.868 248.244 268.061 241.966C288.208 235.431 307.231 225.838 324.463 213.521C341.22 201.787 356.335 186.925 369.395 169.393C382.603 151.609 392.513 132.828 398.849 113.572C400.447 109.221 401.785 104.779 402.857 100.27L403.649 97.2019C404.958 92.5019 405.981 87.7269 406.712 82.9032L407.205 79.7407C407.844 75.6336 408.513 71.368 408.965 67.1788C409.305 61.9451 409.551 56.6176 409.798 51.4074L409.939 47.4822V-208.233L409.798 -212.135C409.581 -217.345 409.305 -222.661 408.965 -227.93C408.542 -232.037 407.885 -236.238 407.251 -240.304L406.741 -243.607C406.007 -248.404 404.982 -253.151 403.672 -257.824L402.857 -260.992C401.789 -265.487 400.455 -269.915 398.861 -274.252C392.513 -293.55 382.603 -312.331 369.39 -330.115C356.335 -347.646 341.226 -362.491 324.469 -374.243C306.621 -386.852 287.646 -396.398 268.055 -402.688C247.863 -408.968 226.86 -412.258 205.714 -412.451H205.72Z" fill="white"/>
<path d="M205.721 145.533C195.59 145.327 185.533 143.748 175.827 140.839C166.196 137.669 157.097 133.066 148.837 127.186C140.986 121.811 133.711 114.659 127.222 105.934C120.627 97.0453 115.88 88.0272 113.105 79.2086C112.383 77.4608 111.825 75.6498 111.439 73.799C111.292 73.2122 111.145 72.5785 110.981 71.9683L110.558 70.3842C109.976 68.4696 109.572 66.5056 109.35 64.5168C109.209 63.4431 109.027 62.3342 108.845 61.2311C108.616 59.8582 108.393 58.4793 108.258 57.0888C108.176 54.5072 108.053 51.9959 107.895 49.4612L107.771 47.5544V-208.261L107.901 -210.215C108.057 -212.726 108.176 -215.242 108.258 -217.761C108.417 -219.21 108.64 -220.583 108.845 -221.956C109.027 -223.065 109.209 -224.174 109.356 -225.282C109.574 -227.271 109.977 -229.235 110.558 -231.15L110.981 -232.734C111.145 -233.321 111.292 -233.96 111.439 -234.576C111.834 -236.453 112.402 -238.29 113.134 -240.062C115.88 -248.799 120.627 -257.787 127.216 -266.7C133.711 -275.431 140.986 -282.583 148.843 -287.963C157.09 -293.837 166.175 -298.435 175.791 -301.605C185.508 -304.516 195.574 -306.095 205.715 -306.299C215.856 -306.093 225.922 -304.514 235.638 -301.605C245.258 -298.433 254.347 -293.832 262.599 -287.957C270.455 -282.577 277.736 -275.425 284.226 -266.7C290.82 -257.782 295.567 -248.793 298.348 -239.968C299.061 -238.233 299.615 -236.436 300.003 -234.6C300.155 -233.978 300.302 -233.356 300.466 -232.74C300.631 -232.124 300.754 -231.649 300.901 -231.109C301.476 -229.194 301.868 -227.23 302.074 -225.241C302.221 -224.144 302.403 -223.024 302.584 -221.897C302.813 -220.542 303.03 -219.186 303.171 -217.79C303.259 -215.208 303.377 -212.697 303.535 -210.162L303.664 -208.261V47.5544L303.535 49.514C303.379 52.0213 303.261 54.5345 303.183 57.0536C303.019 58.4852 302.802 59.8464 302.596 61.2018C302.414 62.3283 302.232 63.4489 302.086 64.5755C301.869 66.5448 301.476 68.4908 300.912 70.39C300.766 70.924 300.619 71.4637 300.484 72.0035C300.314 72.6313 300.167 73.2533 300.015 73.8752C299.618 75.741 299.055 77.5672 298.331 79.3318C295.579 88.0742 290.826 97.0688 284.249 105.97C277.76 114.7 270.478 121.852 262.622 127.233C254.373 133.105 245.289 137.706 235.673 140.88C225.957 143.791 215.891 145.37 205.75 145.574L205.721 145.533ZM205.721 -304.703C195.741 -304.495 185.836 -302.94 176.273 -300.079C166.809 -296.951 157.87 -292.42 149.752 -286.637C142.025 -281.357 134.873 -274.316 128.483 -265.726C121.994 -256.925 117.335 -248.124 114.595 -239.458C113.89 -237.751 113.342 -235.984 112.958 -234.177C112.812 -233.55 112.659 -232.928 112.495 -232.312C112.36 -231.783 112.213 -231.244 112.072 -230.71C111.505 -228.885 111.112 -227.011 110.899 -225.112C110.746 -223.939 110.564 -222.818 110.377 -221.698C110.159 -220.348 109.937 -218.999 109.79 -217.637C109.714 -215.161 109.596 -212.632 109.432 -210.104L109.303 -208.197V47.5133L109.426 49.3674C109.59 51.8942 109.712 54.425 109.79 56.9597C109.937 58.2622 110.159 59.6117 110.377 60.9612C110.558 62.0877 110.74 63.2084 110.887 64.3408C111.104 66.2524 111.497 68.14 112.061 69.9793C112.201 70.5132 112.348 71.0471 112.483 71.5811C112.618 72.115 112.794 72.8132 112.946 73.4352C113.321 75.2215 113.859 76.9695 114.554 78.6571C117.312 87.3994 121.982 96.2591 128.477 105.007C134.861 113.597 142.013 120.632 149.735 125.918C157.859 131.704 166.807 136.236 176.278 139.361C185.839 142.221 195.743 143.776 205.721 143.984C215.706 143.774 225.618 142.216 235.186 139.355C244.651 136.226 253.593 131.695 261.713 125.913C269.434 120.632 276.586 113.591 282.976 105.001C289.465 96.2356 294.124 87.3994 296.864 78.7333C297.569 77.0277 298.113 75.2598 298.489 73.4528C298.647 72.8191 298.8 72.1854 298.97 71.5576C299.14 70.9298 299.252 70.4722 299.398 69.9265C299.956 68.1095 300.349 66.2459 300.572 64.3584C300.719 63.1849 300.906 62.0115 301.094 60.8908C301.311 59.5589 301.534 58.227 301.681 56.8834C301.751 54.4074 301.869 51.8786 302.039 49.3498L302.162 47.4429V-208.232L302.039 -210.086C301.871 -212.613 301.749 -215.155 301.675 -217.714C301.528 -218.993 301.305 -220.325 301.088 -221.656C300.901 -222.795 300.713 -223.939 300.566 -225.089C300.349 -226.987 299.956 -228.861 299.393 -230.686C299.246 -231.232 299.099 -231.783 298.958 -232.329C298.818 -232.875 298.642 -233.585 298.483 -234.218C298.115 -235.993 297.58 -237.73 296.887 -239.405C294.13 -248.147 289.459 -257.007 282.97 -265.761C276.58 -274.345 269.428 -281.38 261.707 -286.666C253.584 -292.451 244.638 -296.982 235.169 -300.109C225.599 -302.962 215.687 -304.508 205.703 -304.703H205.721Z" fill="white"/>
<path d="M205.721 167.088C193.355 166.882 181.078 164.957 169.243 161.367C157.488 157.507 146.385 151.891 136.31 144.71C126.647 138.045 117.781 129.332 109.96 118.817C102.021 108.098 96.2187 97.1083 92.7217 86.1834C91.8419 83.9605 91.1415 81.6709 90.6271 79.3362C90.4628 78.6674 90.2985 77.9985 90.1166 77.3296L89.6707 75.6046C88.9606 73.1917 88.4465 70.7252 88.1335 68.2294C87.9692 67.0559 87.7756 65.8121 87.5819 64.5858C87.2944 62.8256 86.9952 60.9656 86.7957 59.1292L86.209 47.5588V-208.227L86.7957 -219.791C87.0011 -221.675 87.2944 -223.517 87.5819 -225.295C87.7756 -226.521 87.9692 -227.742 88.1335 -228.968C88.4494 -231.452 88.9635 -233.906 89.6707 -236.308L90.1166 -238.033C90.2985 -238.708 90.4628 -239.382 90.6271 -240.051C91.1504 -242.408 91.8607 -244.719 92.7511 -246.963C96.2187 -257.829 102.016 -268.807 109.954 -279.521C117.787 -290.041 126.653 -298.754 136.316 -305.425C146.386 -312.601 157.483 -318.213 169.232 -322.071C181.07 -325.664 193.351 -327.591 205.721 -327.797C218.097 -327.594 230.384 -325.667 242.227 -322.071C253.981 -318.215 265.083 -312.601 275.155 -305.419C284.818 -298.748 293.69 -290.035 301.505 -279.521C309.449 -268.813 315.246 -257.812 318.743 -246.893C319.621 -244.686 320.317 -242.412 320.826 -240.092C320.996 -239.406 321.166 -238.719 321.348 -238.039L321.794 -236.337C322.501 -233.916 323.016 -231.442 323.331 -228.939C323.496 -227.765 323.689 -226.527 323.883 -225.307C324.17 -223.547 324.47 -221.675 324.669 -219.838L325.256 -208.268V47.5471L324.669 59.1116C324.47 60.995 324.17 62.8432 323.883 64.6268C323.689 65.8472 323.496 67.0676 323.296 68.2881C322.982 70.7812 322.47 73.2455 321.765 75.6574L321.319 77.3531C321.137 78.0396 320.967 78.726 320.797 79.4066C320.283 81.753 319.576 84.0529 318.684 86.2831C315.217 97.1494 309.42 108.127 301.481 118.841C293.66 129.355 284.795 138.068 275.119 144.745C265.051 151.924 253.953 157.536 242.204 161.391C230.368 164.984 218.089 166.912 205.721 167.117V167.088ZM205.721 -326.248C193.508 -326.044 181.383 -324.14 169.695 -320.592C158.096 -316.789 147.141 -311.25 137.202 -304.164C127.673 -297.592 118.925 -288.991 111.198 -278.611C103.365 -268.05 97.6444 -257.207 94.1827 -246.429C93.3156 -244.237 92.625 -241.978 92.1174 -239.676C91.9531 -239.001 91.783 -238.32 91.6069 -237.646L91.1493 -235.915C90.4631 -233.583 89.9667 -231.198 89.6649 -228.786C89.4888 -227.519 89.2952 -226.287 89.0781 -225.054C88.7965 -223.294 88.4914 -221.47 88.3036 -219.674L87.7169 -208.18V47.5178L88.3036 59.006C88.4972 60.7662 88.7906 62.5792 89.0722 64.3452C89.2659 65.5774 89.4654 66.8095 89.659 68.0534C89.963 70.476 90.4634 72.8699 91.1551 75.2115L91.6069 76.9717C91.783 77.6406 91.9531 78.3153 92.1174 78.9959C92.6212 81.2699 93.3039 83.5006 94.1592 85.6671C97.6327 96.5157 103.353 107.376 111.174 117.937C118.89 128.317 127.638 136.912 137.167 143.49C147.113 150.575 158.074 156.114 169.678 159.918C181.366 163.462 193.491 165.363 205.703 165.568C217.919 165.354 230.046 163.44 241.734 159.883C253.336 156.081 264.293 150.542 274.234 143.454C283.768 136.871 292.516 128.276 300.232 117.902C308.065 107.341 313.785 96.4982 317.247 85.7199C318.11 83.545 318.796 81.3042 319.301 79.0194C319.471 78.3271 319.647 77.6347 319.829 76.9482L320.274 75.2467C320.963 72.9046 321.461 70.5107 321.765 68.0886C321.941 66.8271 322.134 65.595 322.352 64.3628C322.633 62.6026 322.938 60.772 323.12 58.9766L323.707 47.4825V-208.227L323.12 -219.715C322.932 -221.475 322.639 -223.3 322.357 -225.06C322.158 -226.292 321.964 -227.525 321.771 -228.763C321.464 -231.193 320.964 -233.594 320.274 -235.944L319.829 -237.652C319.647 -238.332 319.471 -239.025 319.301 -239.717C318.803 -241.98 318.124 -244.199 317.27 -246.353C313.797 -257.202 308.076 -268.027 300.255 -278.623C292.534 -288.997 283.786 -297.598 274.263 -304.175C264.316 -311.26 253.355 -316.798 241.752 -320.604C230.058 -324.148 217.927 -326.048 205.709 -326.248H205.721Z" fill="white"/>
<path d="M205.721 188.635C191.12 188.431 176.622 186.157 162.66 181.882C148.773 177.343 135.657 170.715 123.766 162.226C112.289 154.264 101.834 143.985 92.669 131.687C83.381 119.166 76.5397 106.199 72.3211 93.1503C71.2745 90.4339 70.4255 87.6456 69.7805 84.8069L69.2348 82.683L68.7831 80.958C67.9361 78.0052 67.3027 74.9953 66.8879 71.9516C66.706 70.7077 66.5065 69.4463 66.3012 68.1789C65.9433 65.8907 65.5678 63.5261 65.3213 61.1792L64.7346 50.266C64.5644 40.8782 64.582 31.3438 64.5996 22.1321C64.5996 16.9864 64.5996 11.8466 64.5996 6.70688V-167.418C64.5996 -172.564 64.5996 -177.703 64.5996 -182.849C64.5996 -192.061 64.5644 -201.589 64.7346 -210.959L65.2861 -221.855C65.5384 -224.243 65.9139 -226.608 66.2718 -228.896C66.4713 -230.157 66.6708 -231.425 66.8586 -232.692C67.2656 -235.723 67.8952 -238.719 68.742 -241.657L69.1938 -243.418C69.3757 -244.128 69.5575 -244.837 69.7336 -245.542C70.3831 -248.403 71.242 -251.214 72.3035 -253.949C76.4986 -266.94 83.3399 -279.907 92.622 -292.427C101.781 -304.749 112.242 -315.005 123.719 -322.973C135.61 -331.458 148.723 -338.083 162.608 -342.622C176.572 -346.897 191.071 -349.171 205.674 -349.376C220.289 -349.167 234.801 -346.885 248.775 -342.599C262.662 -338.059 275.778 -331.431 287.67 -322.943C299.14 -314.987 309.596 -304.714 318.767 -292.404C328.049 -279.895 334.896 -266.928 339.12 -253.867C340.172 -251.142 341.023 -248.344 341.667 -245.495C341.843 -244.796 342.019 -244.098 342.201 -243.4L342.641 -241.71C343.492 -238.746 344.128 -235.725 344.542 -232.669C344.718 -231.425 344.917 -230.157 345.129 -228.89C345.492 -226.608 345.862 -224.243 346.114 -221.896L346.666 -210.989C346.842 -201.601 346.818 -192.096 346.801 -182.902C346.801 -177.739 346.801 -172.581 346.801 -167.424V6.68924C346.801 11.8525 346.801 17.0099 346.801 22.1732C346.801 31.3673 346.842 40.8782 346.666 50.2307L346.114 61.1264C345.862 63.5144 345.492 65.8789 345.129 68.1672C344.929 69.4345 344.73 70.7019 344.542 71.9692C344.132 75.0192 343.501 78.0352 342.653 80.9932L342.212 82.6771C342.031 83.3753 341.855 84.0794 341.679 84.7776C341.029 87.6477 340.168 90.4659 339.103 93.209C334.908 106.211 328.06 119.172 318.784 131.687C309.625 144.008 299.164 154.27 287.687 162.232C275.79 170.72 262.669 177.346 248.775 181.882C234.811 186.156 220.311 188.43 205.709 188.635H205.721ZM205.721 -347.803C191.273 -347.601 176.928 -345.351 163.112 -341.12C149.374 -336.632 136.401 -330.075 124.64 -321.676C113.304 -313.808 102.966 -303.652 93.907 -291.483C84.7246 -279.097 77.9596 -266.283 73.7938 -253.392C72.7595 -250.706 71.9183 -247.949 71.2767 -245.143L70.731 -243.007L70.2792 -241.247C69.4529 -238.371 68.8372 -235.44 68.4369 -232.475C68.2491 -231.172 68.0496 -229.899 67.8501 -228.626C67.4922 -226.361 67.1226 -224.02 66.8762 -221.708L66.3305 -210.883C66.1604 -201.554 66.178 -192.031 66.1956 -182.826C66.1956 -177.678 66.1956 -172.534 66.1956 -167.395V6.68924C66.1956 11.829 66.1956 16.9727 66.1956 22.1203C66.1956 31.3262 66.1604 40.8488 66.3305 50.2014L66.882 61.0443C67.1226 63.3149 67.4688 65.6559 67.8501 67.9266C68.0496 69.1998 68.2491 70.4731 68.4369 71.7462C68.8441 74.7204 69.4637 77.6616 70.291 80.5472L70.7369 82.3075C70.9246 83.0115 71.1006 83.7274 71.2825 84.4432C71.9176 87.237 72.7509 89.9821 73.7762 92.6574C77.9654 105.607 84.7305 118.421 93.9187 130.795C102.966 142.958 113.281 153.091 124.64 160.988C136.405 169.374 149.378 175.92 163.112 180.403C176.926 184.632 191.27 186.882 205.715 187.086C220.164 186.881 234.511 184.631 248.329 180.403C262.066 175.916 275.037 169.359 286.796 160.959C298.131 153.091 308.469 142.935 317.529 130.766C326.705 118.386 333.476 105.571 337.642 92.675C338.682 89.9799 339.525 87.2131 340.165 84.3962L340.705 82.2898L341.145 80.6C341.976 77.7152 342.598 74.7738 343.005 71.799C343.186 70.4965 343.386 69.2233 343.591 67.9501C343.949 65.6853 344.313 63.3383 344.559 61.0325L345.105 50.2072C345.281 40.8958 345.263 31.3907 345.24 22.2025C345.24 17.0392 345.24 11.8818 345.24 6.7186V-167.418C345.24 -172.581 345.24 -177.739 345.24 -182.902C345.24 -192.09 345.281 -201.595 345.105 -210.936L344.559 -221.773C344.313 -224.038 343.973 -226.385 343.591 -228.649C343.386 -229.923 343.186 -231.196 343.005 -232.475C342.601 -235.464 341.98 -238.419 341.145 -241.317L340.705 -243.013C340.523 -243.711 340.347 -244.409 340.165 -245.113C339.53 -247.908 338.694 -250.653 337.665 -253.327C333.476 -266.283 326.705 -279.103 317.529 -291.465C308.469 -303.634 298.131 -313.79 286.796 -321.658C275.033 -330.055 262.06 -336.612 248.323 -341.103C234.507 -345.34 220.159 -347.596 205.709 -347.803H205.721Z" fill="white"/>
<path d="M205.72 210.187C188.884 209.983 172.163 207.363 156.071 202.406C140.05 197.193 124.919 189.561 111.204 179.776C97.9318 170.523 85.8803 158.689 75.413 144.572C64.7872 130.25 56.8957 115.3 51.9436 100.127C50.7153 96.8854 49.7058 93.5648 48.922 90.1879L47.9597 86.4445C46.9587 82.9092 46.1981 79.3102 45.6832 75.6721C45.5013 74.4341 45.3018 73.1785 45.0965 71.9171C44.6505 69.0773 44.1929 66.1495 43.8819 63.2451L43.0957 47.5559V-208.23L43.8819 -223.896C44.1929 -226.83 44.6505 -229.763 45.0965 -232.615C45.2901 -233.871 45.4896 -235.132 45.6832 -236.394C46.1957 -240.024 46.9543 -243.615 47.9539 -247.142L48.9102 -250.886C49.7022 -254.274 50.7175 -257.606 51.9495 -260.86C56.8722 -275.986 64.7638 -290.936 75.3836 -305.258C85.8803 -319.34 97.9318 -331.186 111.21 -340.462C124.922 -350.255 140.05 -357.895 156.071 -363.116C172.159 -368.076 188.875 -370.698 205.709 -370.902C222.548 -370.701 239.271 -368.079 255.364 -363.116C271.392 -357.899 286.527 -350.259 300.243 -340.462C313.515 -331.21 325.561 -319.375 336.034 -305.258C346.66 -290.942 354.557 -275.986 359.503 -260.808C360.736 -257.555 361.746 -254.223 362.525 -250.833L363.505 -247.031C364.5 -243.521 365.255 -239.947 365.764 -236.335C365.946 -235.103 366.145 -233.841 366.35 -232.58C366.79 -229.746 367.254 -226.812 367.559 -223.902L368.345 -208.219V47.5148L367.565 63.1923C367.254 66.126 366.79 69.0597 366.35 71.9112C366.151 73.1726 365.951 74.4283 365.764 75.6897C365.252 79.2961 364.497 82.8637 363.505 86.3683L362.525 90.1703C361.738 93.5598 360.722 96.8922 359.486 100.145C354.569 115.271 346.677 130.227 336.051 144.543C325.555 158.624 313.503 170.471 300.231 179.747C286.521 189.542 271.392 197.182 255.37 202.401C239.28 207.359 222.562 209.981 205.726 210.187H205.72ZM205.72 -369.353C189.045 -369.15 172.484 -366.553 156.546 -361.643C140.677 -356.469 125.691 -348.9 112.107 -339.201C98.9644 -330.036 87.0361 -318.313 76.6392 -304.355C66.1132 -290.174 58.298 -275.37 53.4105 -260.35C52.1957 -257.141 51.198 -253.853 50.424 -250.51L49.4442 -246.779C48.463 -243.312 47.7162 -239.784 47.2087 -236.218C47.0209 -234.933 46.8215 -233.665 46.622 -232.404C46.1761 -229.587 45.7243 -226.671 45.4485 -223.808L44.6681 -208.213V47.5148L45.4544 63.1161C45.7536 65.9382 46.2054 68.8543 46.6278 71.6706C46.8215 72.938 47.0209 74.1994 47.2146 75.4668C47.7246 79.0334 48.4734 82.5617 49.4559 86.028L50.424 89.7772C51.1927 93.1101 52.1845 96.3876 53.3929 99.5874C58.298 114.655 66.1132 129.458 76.6451 143.645C87.0361 157.598 98.9409 169.321 112.101 178.479C125.687 188.184 140.678 195.755 156.552 200.928C172.491 205.841 189.054 208.438 205.732 208.638C222.414 208.438 238.981 205.841 254.924 200.928C270.792 195.755 285.776 188.187 299.357 178.485C312.5 169.321 324.434 157.604 334.825 143.639C345.351 129.464 353.166 114.655 358.054 99.6343C359.27 96.4209 360.27 93.1299 361.046 89.7831L362.026 85.9752C363.001 82.5323 363.742 79.0273 364.244 75.4844C364.432 74.1936 364.631 72.9321 364.831 71.6648C365.271 68.8484 365.728 65.9324 366.004 63.0633L366.785 47.4738V-208.23L366.004 -223.832C365.705 -226.654 365.247 -229.57 364.831 -232.392C364.631 -233.654 364.432 -234.915 364.244 -236.182C363.738 -239.731 362.993 -243.242 362.014 -246.691L361.035 -250.499C360.262 -253.82 359.268 -257.085 358.06 -260.274C353.155 -275.341 345.339 -290.15 334.808 -304.326C324.422 -318.284 312.512 -330.007 299.351 -339.166C285.766 -348.872 270.776 -356.442 254.9 -361.614C238.958 -366.537 222.392 -369.143 205.709 -369.353H205.72Z" fill="white"/>
<path d="M205.72 231.729C186.655 231.531 167.719 228.567 149.506 222.928C131.347 217.024 114.201 208.371 98.6651 197.27C83.5802 186.709 69.9152 173.326 58.116 157.449C46.1466 141.325 37.2048 124.38 31.5487 107.089C30.1298 103.308 28.954 99.439 28.0283 95.5073L27.0895 91.8813C25.9425 87.7776 25.0567 83.6054 24.4375 79.3897C24.2674 78.2162 24.0796 77.0428 23.8977 75.8987C23.3579 72.4311 22.8005 68.8579 22.4309 65.2964L21.5449 47.5478V-208.232L21.6857 -211.788L22.425 -225.969C22.8005 -229.554 23.3579 -233.145 23.8977 -236.612C24.0796 -237.786 24.2674 -238.959 24.4434 -240.133C25.059 -244.341 25.9429 -248.505 27.0895 -252.601L28.0283 -256.233C28.9552 -260.18 30.131 -264.064 31.5487 -267.862C37.199 -285.094 46.1408 -302.039 58.0867 -318.156C69.9093 -334.039 83.5509 -347.44 98.6358 -357.99C114.172 -369.084 131.316 -377.735 149.47 -383.642C167.686 -389.281 186.624 -392.245 205.691 -392.443C224.761 -392.248 243.701 -389.283 261.918 -383.642C280.086 -377.739 297.242 -369.086 312.787 -357.984C327.867 -347.423 341.508 -334.039 353.331 -318.162C365.3 -302.045 374.236 -285.106 379.904 -267.809C381.319 -264.002 382.494 -260.11 383.424 -256.157L384.328 -252.636C385.484 -248.512 386.375 -244.318 386.997 -240.08C387.174 -238.907 387.361 -237.733 387.543 -236.53C388.083 -233.08 388.64 -229.49 389.01 -225.969L389.89 -208.226V47.5126L389.749 51.0682L389.004 65.2495C388.634 68.7699 388.083 72.3372 387.549 75.7637C387.361 76.9763 387.175 78.1889 386.992 79.4015C386.367 83.6302 385.472 87.8144 384.31 91.9282L383.407 95.4486C382.482 99.4191 381.307 103.327 379.886 107.148C374.248 124.398 365.306 141.337 353.337 157.454C341.514 173.337 327.872 186.732 312.782 197.288C297.247 208.386 280.103 217.037 261.947 222.94C243.733 228.578 224.798 231.542 205.732 231.741L205.72 231.729ZM205.72 -390.905C186.816 -390.701 168.04 -387.756 149.981 -382.163C131.978 -376.307 114.979 -367.727 99.5746 -356.722C84.6187 -346.261 71.1004 -332.983 59.3775 -317.235C47.4785 -301.247 38.6189 -284.455 33.0097 -267.316C31.611 -263.563 30.4489 -259.726 29.5304 -255.828L28.5916 -252.202C27.4626 -248.154 26.5905 -244.039 25.9806 -239.881C25.7987 -238.707 25.6168 -237.534 25.435 -236.36C24.8952 -232.91 24.3378 -229.319 23.974 -225.834L23.0939 -208.185V47.5126L23.2406 51.033L23.9799 65.1908C24.3378 68.6584 24.8952 72.2316 25.435 75.6757C25.6149 76.8492 25.7948 78.0226 25.9748 79.1961C26.5872 83.3542 27.4612 87.4694 28.5916 91.5175L29.5304 95.1494C30.4463 99.0311 31.6024 102.852 32.9921 106.591C38.613 123.764 47.4785 140.557 59.354 156.545C71.0887 172.293 84.5835 185.576 99.5511 196.026C114.96 207.018 131.961 215.586 149.963 221.432C168.022 227.025 186.798 229.966 205.703 230.162C224.608 229.966 243.384 227.023 261.442 221.426C278.898 215.852 295.854 207.286 311.849 195.985C326.805 185.524 340.329 172.24 352.052 156.498C363.921 140.516 372.781 123.717 378.39 106.591C379.807 102.814 380.983 98.9516 381.91 95.0261L382.814 91.5057C383.963 87.4611 384.855 83.3477 385.484 79.1902C385.666 77.9581 385.853 76.7436 386.041 75.5232C386.575 72.1201 387.127 68.5938 387.484 65.1263L388.365 47.4774V-208.232L388.218 -211.753L387.484 -225.91C387.121 -229.36 386.569 -232.91 386.029 -236.343C385.847 -237.516 385.66 -238.725 385.484 -239.916C384.868 -244.094 383.986 -248.23 382.843 -252.296L381.946 -255.816C381.019 -259.707 379.849 -263.536 378.443 -267.281C372.816 -284.466 363.951 -301.259 352.081 -317.235C340.346 -332.983 326.852 -346.267 311.89 -356.717C296.484 -367.727 279.48 -376.309 261.472 -382.163C243.407 -387.76 224.625 -390.704 205.715 -390.905H205.72Z" fill="white"/>
</g>
<defs>
<clipPath id="clip0_78_2498">
<rect width="411.441" height="667.28" fill="white" transform="translate(0 -414)"/>
</clipPath>
</defs>
</svg>
