<svg width="521" height="296" viewBox="0 0 521 296" fill="none" xmlns="http://www.w3.org/2000/svg">
<g opacity="0.12" clip-path="url(#clip0_78_2640)">
<path d="M811.553 310.64C811.234 322.538 809.377 334.346 806.027 345.767C802.27 357.044 796.863 367.702 789.98 377.393C783.791 386.509 775.391 395.076 764.941 402.857C754.083 410.867 743.818 416.296 733.562 419.443C731.616 420.296 729.582 420.93 727.497 421.335C726.692 421.521 725.897 421.698 725.101 421.91C724.305 422.122 723.677 422.299 722.979 422.494C720.802 423.181 718.559 423.635 716.286 423.846C714.898 424.006 713.457 424.253 712.016 424.501C710.574 424.748 709.098 425.005 707.595 425.173C704.536 425.173 701.556 425.349 698.629 425.579L696.375 425.765L310.886 425.765L308.534 425.579C305.626 425.349 302.655 425.217 299.693 425.181C298.102 425.005 296.643 424.748 295.184 424.501C293.725 424.253 292.301 424.006 290.851 423.838C288.596 423.628 286.37 423.174 284.212 422.485C283.513 422.29 282.815 422.096 282.116 421.919C281.418 421.742 280.507 421.521 279.711 421.335C277.568 420.916 275.477 420.261 273.478 419.381C263.381 416.296 253.143 410.867 242.268 402.857C231.817 395.085 223.391 386.518 217.22 377.384C210.34 367.706 204.935 357.059 201.181 345.794C197.828 334.364 195.97 322.547 195.655 310.64C195.968 298.718 197.822 286.888 201.172 275.442C204.931 264.163 210.338 253.502 217.22 243.807C223.409 234.692 231.808 226.124 242.259 218.353C253.125 210.342 263.381 204.914 273.637 201.757C275.592 200.905 277.635 200.27 279.729 199.865C280.525 199.688 281.312 199.503 282.098 199.299C282.885 199.096 283.495 198.919 284.176 198.725C286.366 198.027 288.625 197.571 290.913 197.363C292.293 197.204 293.725 196.956 295.157 196.709C296.59 196.461 298.093 196.205 299.578 196.037C302.664 195.984 305.643 195.851 308.543 195.63L310.798 195.444L696.286 195.444L698.638 195.639C701.547 195.86 704.527 195.993 707.48 196.037C709.08 196.214 710.548 196.47 712.016 196.718C713.483 196.965 714.88 197.213 716.33 197.381C718.592 197.587 720.825 198.041 722.988 198.733C723.677 198.928 724.367 199.122 725.065 199.299C725.764 199.476 726.648 199.697 727.444 199.874C729.593 200.294 731.689 200.949 733.695 201.828C743.783 204.922 754.03 210.342 764.914 218.361C775.356 226.133 783.782 234.701 789.953 243.834C796.834 253.515 802.24 264.164 805.992 275.433C809.349 286.86 811.209 298.673 811.526 310.578L811.553 310.64ZM198.025 310.64C198.341 322.32 200.165 333.91 203.453 345.122C207.14 356.157 212.441 366.585 219.182 376.067C225.221 384.997 233.461 393.379 243.7 400.991C254.31 408.834 264.362 414.138 274.362 417.215C276.253 418.037 278.228 418.654 280.251 419.054C281.082 419.24 281.904 419.434 282.717 419.655C283.531 419.877 284.141 420.036 284.857 420.23C286.867 420.879 288.943 421.306 291.046 421.503C292.611 421.68 294.096 421.937 295.582 422.193C297.067 422.449 298.411 422.688 299.843 422.856C302.734 422.856 305.758 423.015 308.685 423.245L310.948 423.431L696.313 423.431L698.479 423.245C701.468 423.015 704.491 422.883 707.48 422.847C708.788 422.688 710.203 422.441 711.618 422.193C713.032 421.945 714.588 421.68 716.091 421.512C718.219 421.319 720.318 420.892 722.351 420.239C723.067 420.036 723.792 419.832 724.517 419.647C725.242 419.461 726.144 419.24 726.966 419.054C728.941 418.675 730.867 418.082 732.713 417.286C742.881 414.156 752.907 408.842 763.552 400.991C773.791 393.379 782.031 384.997 788.052 376.085C794.805 366.587 800.111 356.141 803.799 345.086C807.08 333.873 808.902 322.284 809.219 310.605C808.9 298.925 807.076 287.335 803.79 276.123C800.105 265.087 794.804 254.659 788.061 245.178C782.031 236.248 773.782 227.866 763.544 220.262C752.934 212.402 742.872 207.097 732.873 204.029C730.973 203.193 728.986 202.573 726.949 202.182C726.126 201.987 725.313 201.801 724.5 201.58C723.686 201.359 723.094 201.2 722.387 201.006C720.376 200.358 718.301 199.931 716.198 199.732C714.633 199.556 713.156 199.299 711.68 199.043C710.203 198.786 708.833 198.557 707.391 198.38C704.5 198.38 701.476 198.212 698.55 197.991L696.286 197.805L310.931 197.805L308.764 197.991C305.802 198.212 302.779 198.353 299.764 198.389C298.446 198.557 297.023 198.795 295.599 199.043C294.176 199.29 292.646 199.556 291.179 199.724C289.04 199.919 286.929 200.349 284.883 201.006C284.176 201.212 283.469 201.406 282.762 201.589C281.966 201.801 281.144 201.987 280.33 202.182C278.346 202.557 276.41 203.15 274.557 203.95C264.398 207.089 254.363 212.393 243.718 220.254C233.488 227.866 225.239 236.248 219.218 245.151C212.463 254.651 207.157 265.1 203.471 276.158C200.174 287.381 198.344 298.983 198.025 310.675V310.64Z" fill="#586470"/>
<path d="M1006.38 310.64C1006.08 342.728 1001.09 374.6 991.566 405.244C981.636 435.824 967.07 464.698 948.375 490.856C930.533 516.311 907.996 539.298 881.375 559.103C854.364 579.165 825.841 594.222 796.594 603.841C790.01 606.263 783.287 608.288 776.462 609.906L771.705 611.144C764.553 613.133 757.287 614.683 749.946 615.786L745.233 616.52C739.044 617.492 732.564 618.5 726.198 619.172C718.24 619.685 710.168 620.11 702.326 620.428L696.358 620.64H310.931L305.007 620.419C297.13 620.101 289.093 619.676 281.135 619.163C274.716 618.5 268.271 617.492 262.047 616.511L257.263 615.786C249.925 614.681 242.661 613.128 235.513 611.135L230.739 609.906C223.909 608.293 217.183 606.267 210.598 603.841C181.421 594.248 152.881 579.191 125.879 559.139C99.2572 539.298 76.7114 516.311 58.8693 490.882C40.1743 464.729 25.6103 435.858 15.6875 405.279C6.15524 374.628 1.15992 342.747 0.860352 310.649C1.16192 278.56 6.15417 246.689 15.6787 216.045C25.6081 185.462 40.1747 156.585 58.8693 130.424C76.7114 104.978 99.2572 82.0258 125.879 62.2032C152.872 42.1418 181.403 27.0936 210.66 17.4741C217.259 15.0401 224 13.0087 230.845 11.3911L235.619 10.1534C242.734 8.16663 249.962 6.60773 257.263 5.48505L262.206 4.72467C268.395 3.76093 274.725 2.77069 281.012 2.0722C289.093 1.60364 297.05 1.17926 305.007 0.852112L310.931 0.631042H696.314L702.282 0.852112C710.159 1.17041 718.196 1.59479 726.154 2.10754C732.572 2.77069 739.018 3.76978 745.251 4.76001L749.972 5.4939C757.364 6.44873 764.694 8.34088 771.784 10.1534L776.409 11.3558C783.274 12.9797 790.036 15.017 796.656 17.4564C825.832 27.0583 854.373 42.1064 881.375 62.1678C908.005 81.9904 930.542 104.952 948.384 130.398C967.078 156.553 981.645 185.423 991.575 216.001C1001.1 246.645 1006.09 278.516 1006.39 310.605L1006.38 310.64ZM3.1945 310.64C3.48727 342.504 8.44392 374.153 17.9067 404.581C27.7614 434.927 42.2177 463.58 60.7702 489.539C78.4797 514.79 100.849 537.53 127.294 557.238C154.092 577.149 182.394 592.082 211.411 601.622C217.943 604.029 224.612 606.042 231.384 607.652L236.132 608.872C243.143 610.64 250.385 612.541 257.635 613.478L262.391 614.212C268.58 615.185 275.008 616.184 281.321 616.865C289.216 617.378 297.236 617.802 305.078 618.111L311.002 618.332H696.314L702.193 618.111C710.053 617.802 718.064 617.378 726.003 616.865C732.263 616.21 738.682 615.211 744.88 614.212L749.619 613.478C756.887 612.541 764.128 610.676 771.13 608.881L775.878 607.652C782.633 606.053 789.284 604.048 795.798 601.649C824.886 592.082 853.179 577.149 879.978 557.238C906.396 537.565 928.765 514.799 946.466 489.539C965.026 463.578 979.486 434.918 989.338 404.563C998.798 374.141 1003.75 342.498 1004.05 310.64C1003.75 278.776 998.798 247.128 989.338 216.699C979.49 186.339 965.034 157.673 946.474 131.706C928.791 106.455 906.396 83.6791 879.978 63.9979C853.179 44.0958 824.878 29.1625 795.86 19.6137C789.304 17.2069 782.611 15.1905 775.816 13.575L771.192 12.3813C764.11 10.409 756.914 8.8678 749.645 7.76617L744.88 7.02344C738.691 6.05969 732.263 5.05176 725.95 4.37097C718.064 3.85822 710.035 3.48688 702.184 3.11554L696.269 2.90332H310.931L305.051 3.11554C297.2 3.44263 289.19 3.85822 281.25 4.37097C275.061 5.00757 268.731 5.99786 262.604 6.95276L257.626 7.72192C250.398 8.82788 243.244 10.3721 236.203 12.346L231.428 13.575C224.654 15.1842 217.982 17.1948 211.447 19.5961C182.367 29.1625 154.066 44.0958 127.267 64.0068C100.849 83.6791 78.4797 106.446 60.7702 131.697C41.7699 158.593 27.3848 187.186 17.9067 216.708C8.44267 247.135 3.486 278.785 3.1945 310.649V310.64Z" fill="#586470"/>
<path d="M844.024 310.64C843.714 325.907 841.335 341.061 836.951 355.687C832.173 370.2 825.237 383.911 816.377 396.358C808.278 408.188 797.5 419.152 784.353 428.93C770.958 438.868 757.369 446.021 744.08 450.203C741.446 451.29 738.717 452.131 735.928 452.714C735.044 452.935 734.089 453.156 733.169 453.404L730.782 454.04C727.897 454.917 724.938 455.527 721.941 455.861C720.323 456.074 718.652 456.348 716.99 456.622C714.921 456.967 712.843 457.303 710.747 457.506C706.857 457.63 703.073 457.815 699.254 458.054L696.38 458.24L310.891 458.24L307.947 458.045C304.163 457.81 300.373 457.63 296.577 457.506C294.393 457.267 292.324 456.931 290.255 456.622C288.584 456.348 286.913 456.074 285.242 455.853C282.246 455.523 279.286 454.916 276.401 454.04L274.014 453.404C273.13 453.156 272.166 452.935 271.237 452.714C268.409 452.118 265.642 451.262 262.971 450.159C249.806 446.021 236.261 438.868 222.83 428.939C209.674 419.152 198.896 408.188 190.789 396.349C181.938 383.921 175.009 370.231 170.232 355.741C165.846 341.099 163.466 325.93 163.159 310.649C163.469 295.368 165.848 280.199 170.232 265.557C175.012 251.061 181.944 237.365 190.798 224.931C198.905 213.092 209.683 202.12 222.83 192.341C236.269 182.403 249.815 175.251 263.112 171.06C265.728 169.985 268.435 169.15 271.202 168.566C272.139 168.337 273.076 168.116 274.005 167.868C274.933 167.62 275.649 167.435 276.463 167.214C279.348 166.347 282.308 165.755 285.304 165.445C286.958 165.224 288.646 164.95 290.344 164.676C292.386 164.331 294.429 164.004 296.533 163.792C300.423 163.659 304.207 163.483 308.027 163.244L310.891 163.049L696.38 163.049L699.333 163.244C703.111 163.48 706.898 163.656 710.694 163.774C712.852 164.022 714.903 164.349 716.945 164.658C718.643 164.933 720.332 165.207 722.029 165.428C724.997 165.754 727.929 166.346 730.791 167.196C731.596 167.417 732.409 167.638 733.223 167.841C734.169 168.098 735.106 168.319 736.043 168.549C738.854 169.146 741.606 169.995 744.266 171.086C757.439 175.233 770.993 182.394 784.406 192.306C797.562 202.084 808.34 213.057 816.447 224.895C825.297 237.326 832.229 251.015 837.013 265.504C841.399 280.146 843.778 295.315 844.086 310.596L844.024 310.64ZM165.564 310.64C165.877 325.678 168.221 340.605 172.531 355.016C177.244 369.276 184.073 382.747 192.787 394.979C200.744 406.623 211.354 417.401 224.298 427.029C237.56 436.808 250.822 443.828 263.881 447.957C266.453 449.019 269.117 449.845 271.839 450.424C272.785 450.645 273.722 450.875 274.65 451.122C275.446 451.326 276.259 451.547 277.064 451.759C279.813 452.613 282.638 453.205 285.499 453.527C287.267 453.757 288.956 454.031 290.645 454.314C292.678 454.641 294.712 454.977 296.763 455.198C300.494 455.313 304.305 455.49 308.115 455.738L310.989 455.932L696.318 455.932L699.112 455.747C702.92 455.499 706.733 455.316 710.553 455.198C712.516 454.977 714.549 454.641 716.583 454.314C718.28 454.04 719.969 453.766 721.676 453.545C724.556 453.218 727.401 452.627 730.172 451.777C730.977 451.564 731.781 451.343 732.586 451.14C733.391 450.937 734.443 450.671 735.38 450.442C738.072 449.878 740.706 449.067 743.249 448.019C756.423 443.864 769.773 436.826 782.956 427.038C795.9 417.419 806.501 406.641 814.467 395.006C823.186 382.763 830.014 369.28 834.723 355.007C839.033 340.599 841.376 325.675 841.69 310.64C841.373 295.593 839.026 280.658 834.714 266.238C829.999 251.976 823.171 238.502 814.458 226.266C806.501 214.631 795.891 203.853 782.947 194.224C769.738 184.446 756.423 177.426 743.364 173.297C740.793 172.234 738.129 171.414 735.406 170.847C734.451 170.609 733.497 170.379 732.551 170.122C731.605 169.866 730.915 169.698 730.093 169.477C727.355 168.637 724.546 168.045 721.702 167.709C719.934 167.488 718.165 167.205 716.477 166.922C714.47 166.595 712.463 166.259 710.438 166.038C706.707 165.932 702.896 165.755 699.086 165.498L696.212 165.313L310.936 165.313L308.142 165.498C304.334 165.752 300.503 165.935 296.648 166.047C294.72 166.268 292.713 166.604 290.706 166.931C288.991 167.214 287.267 167.497 285.534 167.718C282.674 168.044 279.85 168.636 277.099 169.486C276.277 169.707 275.446 169.928 274.624 170.14C273.801 170.352 272.732 170.618 271.777 170.856C269.102 171.412 266.485 172.217 263.961 173.261C250.787 177.417 237.436 184.455 224.245 194.233C211.31 203.862 200.709 214.639 192.743 226.275C184.026 238.515 177.198 251.995 172.487 266.265C168.187 280.685 165.858 295.621 165.564 310.667V310.64Z" fill="#586470"/>
<path d="M876.494 310.64C876.185 329.274 873.283 347.774 867.874 365.608C862.058 383.321 853.595 400.053 842.773 415.235C832.729 429.797 819.6 443.156 803.756 454.942C787.602 466.904 771.042 475.649 754.579 480.918C751.23 482.244 747.779 483.299 744.261 484.075C743.253 484.322 742.245 484.57 741.237 484.844L738.638 485.516C735.002 486.586 731.285 487.361 727.524 487.832C725.756 488.08 723.882 488.371 722.034 488.663C719.381 489.096 716.579 489.547 713.811 489.848L696.376 490.732L310.932 490.732L293.505 489.848C290.667 489.539 287.891 489.096 285.212 488.663C283.364 488.371 281.525 488.08 279.677 487.832C275.934 487.356 272.235 486.581 268.616 485.516L266.017 484.844C265 484.57 263.983 484.322 262.975 484.075C259.424 483.286 255.941 482.216 252.56 480.874C236.186 475.649 219.643 466.913 203.499 454.951C187.646 443.147 174.516 429.788 164.464 415.226C153.649 400.052 145.193 383.329 139.38 365.625C133.966 347.786 131.061 329.28 130.751 310.64C131.057 291.991 133.961 273.475 139.38 255.628C145.19 237.916 153.65 221.187 164.472 206.01C174.525 191.448 187.655 178.08 203.499 166.303C219.634 154.332 236.212 145.596 252.666 140.327C255.991 139.004 259.418 137.954 262.913 137.188C263.948 136.932 264.982 136.675 266.008 136.401L268.572 135.729C272.221 134.663 275.949 133.889 279.721 133.413C281.489 133.165 283.355 132.873 285.194 132.581C287.846 132.148 290.667 131.697 293.434 131.397L310.87 130.513L696.358 130.513L713.785 131.397C716.623 131.697 719.408 132.148 722.096 132.581C723.935 132.873 725.774 133.165 727.613 133.466C731.37 133.939 735.083 134.71 738.718 135.773L741.273 136.445C742.307 136.719 743.342 136.976 744.367 137.232C747.903 138.007 751.369 139.071 754.73 140.415C771.104 145.64 787.646 154.376 803.791 166.338C819.635 178.124 832.765 191.483 842.826 206.063C853.644 221.235 862.101 237.958 867.909 255.664C873.325 273.5 876.229 292.003 876.539 310.64H876.494ZM133.085 310.64C133.393 329.043 136.262 347.314 141.608 364.927C147.339 382.405 155.686 398.914 166.364 413.891C176.267 428.249 189.229 441.432 204.869 453.076C220.784 464.88 237.123 473.5 253.365 478.717C256.669 480.023 260.072 481.064 263.541 481.829C264.558 482.076 265.584 482.333 266.6 482.598L269.209 483.288C272.723 484.322 276.316 485.07 279.951 485.525C281.861 485.79 283.717 486.082 285.574 486.409C288.227 486.833 290.976 487.293 293.682 487.576L311.002 488.46L696.314 488.46L713.626 487.576C716.278 487.284 719.01 486.842 721.671 486.418C723.528 486.126 725.385 485.825 727.259 485.533C730.91 485.075 734.517 484.321 738.046 483.279L740.698 482.598C741.706 482.333 742.723 482.076 743.748 481.829C747.175 481.07 750.537 480.041 753.801 478.752C770.149 473.518 786.515 464.897 802.429 453.112C818.07 441.485 831.023 428.302 840.934 413.944C851.611 398.957 859.958 382.439 865.69 364.953C871.03 347.34 873.895 329.069 874.205 310.667C873.881 292.258 870.998 273.985 865.637 256.371C859.909 238.889 851.562 222.377 840.881 207.398C830.961 193.031 818.008 179.848 802.376 168.221C786.462 156.418 770.123 147.798 753.881 142.581C750.603 141.281 747.227 140.246 743.784 139.487C742.741 139.23 741.697 138.965 740.663 138.691L738.099 138.019C734.569 136.982 730.962 136.231 727.312 135.773C725.411 135.508 723.555 135.216 721.698 134.889C719.045 134.465 716.287 134.005 713.581 133.731L696.261 132.847L310.932 132.847L293.62 133.731C290.967 134.014 288.218 134.456 285.565 134.88C283.709 135.181 281.852 135.473 279.986 135.764C276.325 136.226 272.706 136.98 269.164 138.019L266.591 138.691C265.566 138.965 264.523 139.23 263.479 139.487C260.069 140.236 256.725 141.259 253.48 142.546C237.132 147.78 220.819 156.4 204.851 168.186C189.22 179.822 176.258 193.004 166.347 207.354C155.671 222.342 147.325 238.859 141.591 256.345C136.25 273.967 133.387 292.246 133.085 310.658V310.64Z" fill="#586470"/>
<path d="M908.97 310.64C908.661 332.642 905.235 354.488 898.793 375.528C891.954 396.455 881.966 416.219 869.174 434.138C857.176 451.432 841.686 467.188 823.154 480.998C804.286 494.994 784.747 505.303 765.083 511.66C760.99 513.237 756.788 514.517 752.511 515.489L749.31 516.311L746.711 516.992C742.261 518.268 737.726 519.222 733.139 519.847C731.265 520.122 729.364 520.422 727.454 520.732C724.006 521.271 720.443 521.837 716.906 522.208L700.461 523.092C686.315 523.349 671.947 523.322 658.066 523.296C650.312 523.296 642.567 523.296 634.822 523.296H372.433C364.679 523.296 356.934 523.296 349.18 523.296C335.299 523.296 320.94 523.349 306.821 523.092L290.402 522.261C286.803 521.881 283.24 521.315 279.792 520.776C277.891 520.475 275.982 520.175 274.072 519.892C269.505 519.278 264.99 518.33 260.562 517.054L257.91 516.373C256.84 516.099 255.77 515.825 254.709 515.559C250.396 514.581 246.162 513.286 242.039 511.687C222.464 505.365 202.924 495.056 184.057 481.069C165.49 467.267 150.035 451.503 138.028 434.209C125.242 416.29 115.258 396.53 108.418 375.608C101.977 354.565 98.5503 332.715 98.2412 310.711C98.5558 288.687 101.994 266.819 108.453 245.762C115.294 224.835 125.282 205.072 138.072 187.151C150.061 169.866 165.543 154.111 184.092 140.292C202.942 126.304 222.482 115.986 242.163 109.62C246.27 108.036 250.486 106.754 254.78 105.783C255.832 105.518 256.884 105.253 257.936 104.979L260.482 104.316C264.949 103.032 269.502 102.075 274.107 101.451C275.981 101.186 277.891 100.885 279.801 100.567C283.24 100.019 286.803 99.4616 290.34 99.0814L306.776 98.2503C320.923 97.985 335.246 98.0204 349.101 98.047C356.881 98.047 364.653 98.047 372.424 98.047L634.795 98.047C642.576 98.047 650.347 98.047 658.128 98.047C671.983 98.047 686.315 97.985 700.408 98.2503L716.827 99.0814C720.425 99.4616 723.988 100.019 727.436 100.567C729.346 100.867 731.256 101.168 733.166 101.451C737.762 102.068 742.306 103.019 746.764 104.298L749.301 104.961C750.353 105.235 751.414 105.5 752.467 105.766C756.792 106.744 761.038 108.042 765.172 109.647C784.765 115.969 804.295 126.287 823.154 140.265C841.721 154.067 857.185 169.831 869.183 187.125C881.974 205.053 891.958 224.826 898.793 245.762C905.234 266.804 908.66 288.654 908.97 310.658V310.64ZM100.611 310.64C100.915 332.411 104.306 354.029 110.681 374.847C117.445 395.548 127.326 415.098 139.982 432.821C151.838 449.903 167.143 465.481 185.48 479.132C204.144 492.969 223.454 503.164 242.879 509.441C246.927 511 251.081 512.267 255.31 513.234L258.528 514.056L261.181 514.737C265.514 515.982 269.931 516.91 274.399 517.513C276.362 517.796 278.28 518.097 280.199 518.397C283.612 518.937 287.139 519.494 290.623 519.865L306.936 520.687C320.993 520.944 335.343 520.917 349.215 520.891C356.972 520.891 364.723 520.891 372.469 520.891H634.795C642.54 520.891 650.291 520.891 658.048 520.891C671.921 520.891 686.27 520.944 700.364 520.687L716.703 519.856C720.124 519.494 723.652 518.972 727.074 518.397C728.992 518.097 730.911 517.796 732.83 517.513C737.311 516.9 741.743 515.966 746.092 514.719L748.744 514.047C749.805 513.765 750.884 513.499 751.963 513.225C756.173 512.268 760.309 511.013 764.341 509.468C783.854 503.155 803.164 492.961 821.81 479.115C840.139 465.481 855.408 449.938 867.309 432.821C879.945 415.092 889.81 395.544 896.565 374.847C902.937 354.031 906.328 332.417 906.635 310.649C906.326 288.876 902.936 267.256 896.565 246.434C889.803 225.734 879.922 206.188 867.264 188.469C855.408 171.387 840.103 155.808 821.766 142.157C803.111 128.329 783.801 118.126 764.367 111.848C760.306 110.282 756.137 109.011 751.892 108.047L748.718 107.233L746.171 106.57C741.824 105.317 737.392 104.38 732.909 103.767C730.946 103.493 729.028 103.193 727.109 102.883C723.696 102.344 720.16 101.796 716.685 101.424L700.373 100.602C686.341 100.337 672.018 100.363 658.172 100.399C650.392 100.399 642.62 100.399 634.839 100.399L372.433 100.399C364.653 100.399 356.881 100.399 349.101 100.399C335.255 100.399 320.932 100.337 306.856 100.602L290.526 101.424C287.113 101.796 283.576 102.309 280.164 102.883C278.245 103.193 276.326 103.493 274.399 103.767C269.895 104.375 265.442 105.312 261.075 106.57L258.52 107.233C257.467 107.507 256.415 107.773 255.354 108.047C251.143 109.004 247.007 110.262 242.976 111.813C223.454 118.126 204.136 128.329 185.507 142.157C167.169 155.808 151.865 171.387 140.008 188.469C127.356 206.194 117.475 225.743 110.708 246.442C104.323 267.263 100.923 288.883 100.611 310.658V310.64Z" fill="#586470"/>
<path d="M941.445 310.64C941.138 336.012 937.19 361.208 929.721 385.457C921.865 409.6 910.365 432.4 895.62 453.068C881.677 473.067 863.844 491.228 842.571 507.001C820.989 523.013 798.461 534.905 775.597 542.367C770.712 544.218 765.708 545.739 760.619 546.92L754.979 548.37C749.651 549.879 744.228 551.025 738.746 551.801C736.88 552.075 734.988 552.375 733.087 552.685C728.808 553.357 724.396 554.046 720.019 554.515L696.377 555.7H310.933L287.326 554.515C282.905 554.046 278.485 553.357 274.188 552.685C272.296 552.393 270.395 552.092 268.494 551.801C263.023 551.028 257.612 549.885 252.296 548.379L246.655 546.938C241.55 545.744 236.528 544.214 231.625 542.358C208.831 534.94 186.303 523.048 164.721 507.045C143.502 491.228 125.651 473.067 111.672 453.059C96.9154 432.396 85.4034 409.599 77.5354 385.457C70.0616 361.215 66.1103 336.024 65.8027 310.658C66.1062 285.283 70.0575 260.083 77.5354 235.832C85.3976 211.68 96.9099 188.873 111.672 168.204C125.615 148.204 143.449 130.053 164.721 114.271C186.294 98.2588 208.831 86.3582 231.704 78.9048C236.605 77.047 241.627 75.5256 246.735 74.3514L252.464 72.8749C257.753 71.3753 263.138 70.2379 268.582 69.4709C270.439 69.1968 272.34 68.8962 274.241 68.5867C278.511 67.9236 282.932 67.2252 287.317 66.7654L310.951 65.5807L696.315 65.5807L719.94 66.7566C724.36 67.2252 728.781 67.9236 733.078 68.5867C734.979 68.8874 736.871 69.188 738.772 69.4709C744.206 70.2416 749.583 71.3788 754.864 72.8749L760.593 74.3514C765.701 75.5377 770.722 77.0678 775.623 78.9313C798.417 86.3405 820.954 98.2323 842.527 114.244C863.746 130.062 881.597 148.222 895.576 168.221C910.336 188.882 921.848 211.68 929.713 235.824C937.185 260.069 941.136 285.262 941.445 310.631V310.64ZM68.1369 310.64C68.4437 335.769 72.3562 360.724 79.7546 384.741C87.5527 408.654 98.957 431.236 113.573 451.706C127.384 471.511 145.049 489.486 166.083 505.153C187.453 521.015 209.76 532.791 232.394 540.156C237.23 541.987 242.184 543.49 247.221 544.657L252.844 546.133C258.068 547.612 263.385 548.737 268.759 549.502C270.695 549.785 272.605 550.085 274.506 550.386C278.75 551.058 283.144 551.739 287.459 552.154L310.959 553.33H696.315L719.825 552.145C724.078 551.695 728.472 551.014 732.716 550.377C734.625 550.085 736.526 549.785 738.436 549.493C743.811 548.724 749.127 547.596 754.351 546.116L760 544.657C765.023 543.498 769.962 542.004 774.783 540.183C797.488 532.791 819.795 521.015 841.174 505.144C862.199 489.486 879.864 471.546 893.666 451.715C908.29 431.242 919.698 408.653 927.494 384.732C934.898 360.713 938.81 335.755 939.111 310.622C938.81 285.484 934.898 260.52 927.494 236.495C919.699 212.583 908.294 190.004 893.675 169.539C879.864 149.734 862.208 131.75 841.165 116.092C819.804 100.23 797.488 88.4536 774.854 81.0886C770.012 79.2564 765.053 77.75 760.009 76.5795L754.271 75.1029C749.083 73.6338 743.801 72.5172 738.463 71.7609C736.518 71.4779 734.617 71.1773 732.707 70.8767C728.463 70.2136 724.069 69.524 719.745 69.1084L696.253 67.9325L310.933 67.9325L287.423 69.1084C283.171 69.5593 278.776 70.249 274.524 70.8767C272.623 71.1773 270.722 71.4779 268.812 71.7609C263.464 72.5228 258.174 73.6453 252.977 75.1206L247.239 76.5971C242.234 77.7618 237.314 79.2594 232.509 81.0798C209.804 88.4713 187.488 100.248 166.127 116.119C145.093 131.768 127.428 149.716 113.626 169.548C99.0005 190.02 87.5927 212.609 79.7988 236.531C72.3812 260.554 68.4538 285.518 68.1369 310.658V310.64Z" fill="#586470"/>
<path d="M973.912 310.64C973.614 339.37 969.147 367.904 960.65 395.35C951.754 422.714 938.715 448.551 921.986 471.962C906.072 494.693 885.904 515.285 861.979 533.065C837.683 551.102 812.149 564.576 786.093 573.099C780.394 575.237 774.564 577.009 768.64 578.404L763.176 579.819C756.992 581.547 750.705 582.882 744.352 583.815C742.584 584.072 740.815 584.355 739.091 584.629C733.866 585.442 728.482 586.282 723.115 586.839L696.369 588.174H310.934L305.576 587.962L284.206 586.848C278.804 586.282 273.393 585.442 268.168 584.629C266.399 584.355 264.631 584.072 262.863 583.806C256.521 582.879 250.246 581.547 244.075 579.819L238.602 578.404C232.654 577.008 226.801 575.236 221.078 573.099C195.11 564.585 169.576 551.111 145.289 533.109C121.355 515.294 101.161 494.737 85.2639 472.006C68.5452 448.594 55.5092 422.76 46.6089 395.403C38.1115 367.954 33.6441 339.417 33.3467 310.684C33.6406 281.948 38.108 253.408 46.6089 225.956C55.5032 198.578 68.5426 172.726 85.2727 149.301C101.187 126.578 121.355 106.022 145.28 88.206C169.567 70.1694 195.093 56.7038 221.157 48.1629C226.894 46.0312 232.759 44.2595 238.717 42.858L244.021 41.4964C250.237 39.7549 256.556 38.4113 262.942 37.4736C264.711 37.2083 266.479 36.9254 268.291 36.6513C273.49 35.8379 278.901 34.9979 284.206 34.4409L310.943 33.1147H696.316L701.674 33.3269L723.044 34.4498C728.349 35.0068 733.725 35.8378 738.888 36.6425C740.715 36.9254 742.543 37.2054 744.37 37.4824C750.742 38.4234 757.047 39.773 763.246 41.5229L768.551 42.8846C774.534 44.2773 780.423 46.0491 786.181 48.1895C812.175 56.6861 837.7 70.1605 861.988 88.1972C885.922 106.013 906.107 126.569 922.013 149.309C938.737 172.718 951.773 198.553 960.668 225.912C969.164 253.358 973.631 281.893 973.93 310.622L973.912 310.64ZM35.6631 310.64C35.9711 339.128 40.4085 367.42 48.837 394.634C57.6618 421.762 70.5906 447.379 87.1736 470.591C102.938 493.128 122.946 513.499 146.677 531.164C170.77 549.095 196.074 562.445 221.9 570.898C227.555 573.006 233.337 574.757 239.212 576.141L244.676 577.555C250.776 579.257 256.977 580.571 263.243 581.49C265.011 581.764 266.779 582.038 268.548 582.312C273.747 583.126 279.158 583.966 284.409 584.514L311.005 585.84H696.316L701.621 585.619L722.956 584.505C728.181 583.966 733.565 583.126 738.755 582.312C740.524 582.041 742.292 581.77 744.06 581.499C750.326 580.576 756.527 579.259 762.627 577.555L768.1 576.141C773.95 574.761 779.708 573.018 785.341 570.924C811.22 562.454 836.524 549.095 860.618 531.2C884.348 513.517 904.365 493.181 920.112 470.627C936.676 447.407 949.587 421.788 958.396 394.661C966.824 367.447 971.255 339.154 971.552 310.667C971.256 282.179 966.821 253.885 958.387 226.672C949.987 200.369 937.079 174.817 920.05 150.715C904.286 128.178 884.269 107.799 860.547 90.1334C836.463 72.2471 811.149 58.8965 785.341 50.4441C779.651 48.3087 773.83 46.5368 767.915 45.1392L762.61 43.7776C756.515 42.0457 750.316 40.702 744.051 39.7546C742.195 39.4806 740.365 39.1977 738.526 38.9147C733.398 38.1102 728.084 37.2791 722.858 36.7398L696.263 35.4136H310.934L305.629 35.6346L284.294 36.7398C279.096 37.288 273.747 38.119 268.574 38.9324C266.806 39.2065 264.985 39.4894 263.19 39.7546C256.893 40.6822 250.662 42.0111 244.534 43.7333L239.229 45.0861C233.366 46.4829 227.596 48.2458 221.953 50.3644C196.056 58.8434 170.752 72.2029 146.677 90.0893C122.946 107.772 102.929 128.108 87.1825 150.653C70.5914 173.869 57.6592 199.492 48.837 226.628C40.4034 253.85 35.9659 282.152 35.6631 310.649V310.64Z" fill="#586470"/>
</g>
<defs>
<clipPath id="clip0_78_2640">
<rect width="620" height="1005.52" fill="white" transform="matrix(0 -1 1 0 0.857422 620.64)"/>
</clipPath>
</defs>
</svg>
