<svg width="199" height="382" viewBox="0 0 199 382" fill="none" xmlns="http://www.w3.org/2000/svg">
<g opacity="0.14" clip-path="url(#clip0_78_2522)">
<path d="M120.292 190.623C120.488 183.306 121.63 176.046 123.69 169.023C126 162.089 129.326 155.535 133.558 149.576C137.363 143.971 142.528 138.703 148.954 133.918C155.631 128.993 161.943 125.655 168.249 123.719C169.446 123.195 170.696 122.805 171.979 122.556C172.473 122.442 172.963 122.333 173.452 122.202C173.941 122.072 174.327 121.963 174.757 121.844C176.095 121.421 177.475 121.142 178.872 121.012C179.726 120.914 180.612 120.762 181.498 120.609C182.384 120.457 183.292 120.3 184.217 120.196C186.098 120.196 187.93 120.088 189.729 119.946L191.116 119.832L428.154 119.832L429.6 119.946C431.389 120.088 433.215 120.169 435.037 120.191C436.015 120.3 436.912 120.457 437.809 120.609C438.706 120.762 439.582 120.914 440.473 121.017C441.86 121.146 443.229 121.425 444.556 121.849C444.986 121.969 445.415 122.088 445.845 122.197C446.274 122.306 446.834 122.442 447.323 122.556C448.642 122.813 449.927 123.216 451.156 123.757C457.365 125.655 463.661 128.993 470.348 133.918C476.774 138.697 481.955 143.965 485.75 149.581C489.98 155.533 493.304 162.079 495.612 169.007C497.674 176.035 498.816 183.301 499.01 190.623C498.817 197.953 497.677 205.228 495.617 212.266C493.306 219.202 489.981 225.757 485.75 231.718C481.944 237.324 476.779 242.592 470.353 247.371C463.672 252.296 457.365 255.634 451.058 257.575C449.856 258.099 448.6 258.49 447.313 258.739C446.823 258.847 446.339 258.962 445.856 259.087C445.372 259.212 444.997 259.32 444.578 259.44C443.232 259.869 441.842 260.15 440.435 260.277C439.587 260.375 438.706 260.527 437.826 260.68C436.945 260.832 436.021 260.989 435.107 261.093C433.21 261.125 431.378 261.207 429.595 261.343L428.208 261.457H191.17L189.724 261.337C187.935 261.202 186.103 261.12 184.287 261.093C183.303 260.984 182.401 260.826 181.498 260.674C180.596 260.522 179.737 260.37 178.845 260.266C177.454 260.139 176.081 259.861 174.751 259.435C174.327 259.315 173.903 259.195 173.474 259.087C173.044 258.978 172.501 258.842 172.011 258.733C170.69 258.475 169.401 258.072 168.168 257.532C161.964 255.629 155.663 252.296 148.971 247.365C142.55 242.586 137.369 237.318 133.574 231.702C129.343 225.749 126.019 219.201 123.712 212.272C121.648 205.245 120.504 197.981 120.309 190.661L120.292 190.623ZM497.553 190.623C497.359 183.441 496.237 176.314 494.215 169.42C491.948 162.634 488.688 156.222 484.543 150.391C480.83 144.9 475.763 139.747 469.467 135.066C462.943 130.243 456.762 126.981 450.613 125.089C449.45 124.584 448.236 124.205 446.992 123.958C446.481 123.844 445.975 123.725 445.475 123.589C444.975 123.453 444.6 123.355 444.159 123.235C442.923 122.836 441.647 122.574 440.354 122.452C439.391 122.344 438.478 122.186 437.565 122.028C436.651 121.871 435.825 121.724 434.944 121.621C433.166 121.621 431.307 121.523 429.508 121.381L428.116 121.267L191.154 121.267L189.822 121.381C187.984 121.523 186.125 121.604 184.287 121.626C183.483 121.724 182.613 121.876 181.743 122.028C180.873 122.181 179.916 122.344 178.992 122.447C177.684 122.566 176.393 122.828 175.143 123.23C174.702 123.355 174.257 123.48 173.811 123.594C173.365 123.708 172.81 123.844 172.305 123.958C171.091 124.192 169.906 124.556 168.771 125.046C162.519 126.97 156.354 130.238 149.808 135.066C143.512 139.747 138.445 144.9 134.743 150.381C130.591 156.221 127.328 162.644 125.06 169.442C123.043 176.337 121.922 183.463 121.728 190.645C121.923 197.826 123.045 204.953 125.066 211.848C127.332 218.633 130.591 225.046 134.738 230.876C138.445 236.367 143.518 241.521 149.813 246.196C156.337 251.03 162.524 254.292 168.673 256.178C169.841 256.692 171.063 257.073 172.316 257.314C172.821 257.434 173.321 257.548 173.822 257.684C174.322 257.82 174.686 257.918 175.121 258.037C176.357 258.436 177.633 258.698 178.927 258.82C179.889 258.929 180.797 259.087 181.705 259.244C182.613 259.402 183.455 259.543 184.342 259.652C186.119 259.652 187.979 259.755 189.778 259.891L191.17 260.005H428.127L429.459 259.891C431.28 259.755 433.139 259.668 434.993 259.647C435.803 259.543 436.679 259.397 437.554 259.244C438.429 259.092 439.37 258.929 440.272 258.826C441.587 258.705 442.885 258.441 444.143 258.037C444.578 257.911 445.013 257.791 445.448 257.679C445.937 257.548 446.443 257.434 446.943 257.314C448.163 257.084 449.353 256.719 450.493 256.227C456.74 254.297 462.91 251.035 469.456 246.202C475.746 241.521 480.819 236.367 484.521 230.892C488.674 225.051 491.938 218.625 494.204 211.826C496.231 204.925 497.357 197.791 497.553 190.601V190.623Z" fill="#586470"/>
<path d="M0.490173 190.62C0.675415 170.889 3.74518 151.291 9.60199 132.448C15.7076 113.644 24.6647 95.8894 36.16 79.8047C47.1312 64.1526 60.9893 50.0173 77.359 37.8391C93.968 25.5034 111.507 16.2447 129.491 10.3297C133.539 8.84055 137.673 7.59514 141.87 6.6001L144.795 5.83897C149.193 4.61627 153.661 3.66308 158.175 2.98473L161.073 2.53348C164.878 1.93545 168.863 1.31567 172.778 0.902485C177.671 0.587159 182.634 0.3262 187.457 0.13048L191.126 0L428.127 0L431.769 0.135916C436.613 0.331636 441.555 0.592596 446.448 0.907922C450.395 1.31567 454.358 1.93545 458.186 2.53892L461.127 2.98473C465.639 3.66396 470.106 4.61898 474.501 5.84441L477.437 6.6001C481.637 7.5924 485.772 8.83785 489.822 10.3297C507.763 16.2284 525.312 25.4871 541.916 37.8174C558.286 50.0173 572.149 64.1526 583.12 79.7884C594.616 95.8702 603.571 113.623 609.673 132.426C615.534 151.274 618.606 170.878 618.79 190.615C618.605 210.346 615.535 229.944 609.678 248.787C603.573 267.592 594.616 285.349 583.12 301.436C572.149 317.082 558.286 331.196 541.916 343.385C525.318 355.721 507.774 364.974 489.784 370.889C485.726 372.385 481.581 373.635 477.372 374.629L474.436 375.39C470.061 376.612 465.617 377.571 461.127 378.261L458.088 378.728C454.282 379.321 450.39 379.93 446.524 380.359C441.555 380.648 436.662 380.909 431.769 381.11L428.127 381.246H191.154L187.484 381.11C182.64 380.914 177.698 380.653 172.805 380.338C168.858 379.93 164.895 379.316 161.062 378.707L158.159 378.255C153.614 377.668 149.107 376.505 144.746 375.39L141.903 374.651C137.681 373.652 133.524 372.4 129.453 370.9C111.512 364.995 93.9626 355.742 77.359 343.407C60.9838 331.218 47.1258 317.099 36.1546 301.452C24.6594 285.369 15.7023 267.616 9.59656 248.814C3.74011 229.971 0.67041 210.373 0.484741 190.642L0.490173 190.62ZM617.355 190.62C617.175 171.027 614.127 151.566 608.308 132.856C602.248 114.195 593.359 96.5765 581.951 80.6148C571.062 65.0877 557.307 51.1046 541.046 38.9863C524.567 26.7429 507.165 17.5604 489.322 11.6943C485.305 10.2145 481.204 8.97632 477.04 7.98645L474.121 7.23619C469.809 6.14886 465.357 4.97998 460.899 4.40369L457.974 3.95245C454.168 3.35442 450.216 2.74008 446.334 2.32145C441.479 2.00613 436.548 1.74517 431.726 1.55488L428.083 1.41897L191.154 1.41897L187.538 1.55488C182.705 1.74517 177.78 2.00613 172.897 2.32145C169.048 2.72377 165.101 3.33811 161.29 3.95245L158.376 4.40369C153.907 4.97998 149.454 6.12711 145.149 7.23076L142.229 7.98645C138.076 8.9698 133.986 10.2025 129.98 11.6779C112.094 17.5604 94.6965 26.7429 78.218 38.9863C61.9733 51.0828 48.2186 65.0822 37.3344 80.6148C25.9214 96.5783 17.0302 114.201 10.972 132.866C5.15485 151.573 2.10699 171.031 1.92542 190.62C2.10742 210.213 5.15521 229.674 10.972 248.385C17.0275 267.053 25.9169 284.68 37.3289 300.647C48.2023 316.174 61.9733 330.179 78.218 342.281C94.6965 354.519 112.099 363.702 129.942 369.573C133.974 371.053 138.089 372.293 142.267 373.286L145.111 374.02C149.466 375.233 153.89 376.181 158.36 376.858L161.29 377.315C165.096 377.908 169.048 378.527 172.93 378.946C177.78 379.261 182.716 379.49 187.544 379.718L191.181 379.848H428.127L431.742 379.718C436.57 379.517 441.495 379.261 446.377 378.946C450.183 378.555 454.076 377.946 457.843 377.358L460.904 376.885C465.349 376.205 469.748 375.256 474.077 374.042L477.013 373.286C481.178 372.297 485.281 371.061 489.3 369.584C507.181 363.702 524.584 354.519 541.062 342.276C557.307 330.179 571.062 316.18 581.951 300.653C593.635 284.114 602.48 266.532 608.308 248.379C614.128 229.669 617.176 210.208 617.355 190.615V190.62Z" fill="#586470"/>
<path d="M100.329 190.621C100.519 181.233 101.983 171.915 104.678 162.921C107.616 153.997 111.881 145.566 117.329 137.912C122.309 130.638 128.937 123.897 137.021 117.884C145.258 111.773 153.614 107.375 161.785 104.803C163.405 104.135 165.083 103.618 166.798 103.259C167.341 103.123 167.928 102.987 168.494 102.835L169.962 102.444C171.736 101.904 173.556 101.529 175.398 101.324C176.393 101.193 177.421 101.025 178.443 100.856C179.715 100.644 180.993 100.438 182.281 100.313C184.673 100.236 187 100.122 189.349 99.9755L191.116 99.8613L428.154 99.8613L429.964 99.9809C432.291 100.126 434.622 100.236 436.956 100.313C438.299 100.459 439.571 100.666 440.843 100.856C441.871 101.025 442.898 101.193 443.926 101.329C445.769 101.532 447.589 101.905 449.362 102.444L450.83 102.835C451.374 102.987 451.967 103.123 452.537 103.259C454.276 103.626 455.978 104.152 457.621 104.83C465.716 107.375 474.045 111.773 482.303 117.878C490.393 123.897 497.02 130.638 502.006 137.918C507.448 145.56 511.709 153.978 514.646 162.888C517.343 171.891 518.806 181.219 518.995 190.615C518.805 200.012 517.342 209.339 514.646 218.342C511.707 227.256 507.444 235.678 502 243.324C497.015 250.603 490.387 257.35 482.303 263.363C474.039 269.474 465.71 273.872 457.534 276.449C455.925 277.11 454.26 277.623 452.559 277.982C451.983 278.124 451.407 278.26 450.836 278.412C450.265 278.564 449.825 278.678 449.324 278.814C447.55 279.347 445.73 279.711 443.888 279.902C442.871 280.037 441.833 280.206 440.789 280.375C439.533 280.587 438.277 280.788 436.983 280.918C434.591 281 432.264 281.108 429.915 281.255L428.154 281.375H191.116L189.3 281.255C186.977 281.11 184.648 281.002 182.314 280.929C180.987 280.777 179.726 280.576 178.47 280.385C177.426 280.217 176.388 280.048 175.344 279.912C173.519 279.712 171.716 279.348 169.956 278.825C169.462 278.689 168.961 278.553 168.461 278.428C167.88 278.271 167.303 278.135 166.727 277.993C164.998 277.626 163.306 277.104 161.671 276.433C153.57 273.883 145.236 269.479 136.988 263.385C128.899 257.372 122.271 250.625 117.286 243.345C111.844 235.702 107.582 227.285 104.64 218.375C101.943 209.372 100.48 200.044 100.291 190.648L100.329 190.621ZM517.516 190.621C517.324 181.374 515.883 172.195 513.232 163.334C510.334 154.566 506.135 146.282 500.777 138.761C495.884 131.601 489.36 124.973 481.401 119.053C473.246 113.04 465.091 108.723 457.061 106.184C455.479 105.531 453.841 105.023 452.168 104.667C451.586 104.531 451.01 104.39 450.439 104.238C449.95 104.113 449.449 103.977 448.955 103.846C447.264 103.321 445.527 102.957 443.768 102.759C442.681 102.618 441.642 102.449 440.604 102.275C439.354 102.074 438.103 101.867 436.842 101.732C434.548 101.661 432.204 101.552 429.861 101.4L428.094 101.28L191.154 101.28L189.436 101.394C187.094 101.547 184.749 101.659 182.401 101.732C181.194 101.867 179.943 102.074 178.693 102.275C177.649 102.444 176.611 102.612 175.562 102.748C173.79 102.949 172.041 103.313 170.337 103.836C169.842 103.966 169.347 104.102 168.853 104.227C168.358 104.352 167.711 104.515 167.135 104.656C165.479 105.003 163.86 105.502 162.296 106.146C154.195 108.701 145.986 113.029 137.88 119.047C129.921 124.962 123.402 131.59 118.504 138.744C113.143 146.272 108.944 154.563 106.048 163.34C103.398 172.199 101.957 181.376 101.764 190.621C101.959 199.873 103.402 209.057 106.054 217.924C108.953 226.694 113.152 234.979 118.509 242.503C123.402 249.657 129.926 256.285 137.885 262.205C146.008 268.218 154.195 272.535 162.225 275.074C163.806 275.727 165.444 276.232 167.118 276.58C167.706 276.727 168.293 276.868 168.874 277.026C169.456 277.183 169.88 277.287 170.386 277.422C172.069 277.939 173.796 278.303 175.545 278.51C176.633 278.646 177.72 278.82 178.758 278.994C179.992 279.195 181.227 279.401 182.472 279.537C184.766 279.603 187.109 279.711 189.452 279.869L191.219 279.983H428.127L429.845 279.869C432.186 279.713 434.542 279.601 436.912 279.532C438.098 279.396 439.332 279.189 440.566 278.988C441.621 278.814 442.681 278.64 443.746 278.504C445.505 278.303 447.242 277.939 448.933 277.417C449.439 277.281 449.95 277.145 450.455 277.015C450.961 276.884 451.619 276.721 452.206 276.574C453.851 276.233 455.46 275.738 457.012 275.096C465.112 272.54 473.322 268.213 481.433 262.2C489.387 256.279 495.906 249.652 500.804 242.497C506.164 234.971 510.363 226.682 513.259 217.907C515.904 209.04 517.336 199.856 517.516 190.605V190.621Z" fill="#586470"/>
<path d="M80.3598 190.623C80.5502 179.165 82.3342 167.789 85.6605 156.823C89.2369 145.931 94.4407 135.642 101.095 126.307C107.271 117.353 115.345 109.138 125.087 101.891C135.02 94.5351 145.203 89.1582 155.326 85.918C157.385 85.1028 159.507 84.4537 161.67 83.9771C162.29 83.8249 162.91 83.6727 163.53 83.5041L165.128 83.0909C167.364 82.4329 169.649 81.9566 171.962 81.6665C173.049 81.5143 174.202 81.3349 175.338 81.1555C176.969 80.8891 178.693 80.6118 180.394 80.427L191.115 79.8833L428.126 79.8833L438.842 80.427C440.587 80.6172 442.294 80.8891 443.942 81.1555C445.078 81.3349 446.209 81.5143 447.345 81.6665C449.646 81.9593 451.921 82.4356 454.146 83.0909L455.745 83.5041C456.37 83.6727 456.995 83.8249 457.615 83.9771C459.798 84.462 461.94 85.1201 464.019 85.9452C474.088 89.1582 484.26 94.5296 494.187 101.885C503.935 109.143 512.008 117.358 518.19 126.312C524.84 135.643 530.04 145.926 533.614 156.812C536.943 167.781 538.729 179.161 538.92 190.623C538.732 202.09 536.946 213.475 533.614 224.449C530.042 235.341 524.839 245.628 518.185 254.96C512.003 263.914 503.93 272.134 494.187 279.376C484.265 286.737 474.072 292.109 463.954 295.349C461.909 296.162 459.802 296.808 457.653 297.279C457.017 297.436 456.381 297.594 455.75 297.763L454.173 298.176C451.929 298.831 449.637 299.308 447.318 299.6C446.23 299.752 445.083 299.932 443.952 300.111C442.321 300.378 440.587 300.655 438.885 300.84L428.164 301.383H191.126L180.41 300.84C178.665 300.655 176.953 300.378 175.3 300.111C174.169 299.932 173.038 299.752 171.908 299.568C169.597 299.277 167.314 298.802 165.079 298.149L163.508 297.735C162.872 297.567 162.236 297.409 161.605 297.252C159.431 296.775 157.3 296.121 155.233 295.294C145.165 292.081 134.993 286.71 125.065 279.354C115.323 272.107 107.249 263.892 101.063 254.927C94.4106 245.598 89.2103 235.315 85.6387 224.428C82.3088 213.46 80.5229 202.083 80.3326 190.623H80.3598ZM537.485 190.623C537.295 179.306 535.531 168.071 532.244 157.241C528.72 146.494 523.587 136.343 517.021 127.133C510.932 118.304 502.962 110.198 493.344 103.038C483.558 95.7801 473.512 90.4793 463.524 87.2717C461.493 86.4683 459.4 85.8283 457.267 85.358C456.642 85.2058 456.011 85.0481 455.386 84.885L453.782 84.461C451.621 83.8252 449.412 83.3652 447.176 83.0855C446.002 82.9224 444.86 82.743 443.719 82.5418C442.088 82.2809 440.397 81.9982 438.733 81.8242L428.083 81.2805L191.153 81.2805L180.508 81.8242C178.877 82.0036 177.197 82.2754 175.561 82.5364C174.419 82.7158 173.278 82.9006 172.125 83.0801C169.88 83.3618 167.662 83.8254 165.492 84.4664L163.861 84.885C163.242 85.0481 162.616 85.2058 161.986 85.358C159.879 85.8249 157.812 86.4575 155.804 87.25C145.752 90.4685 135.689 95.7692 125.903 103.016C116.285 110.165 108.32 118.272 102.226 127.101C95.6607 136.316 90.5283 146.473 87.0034 157.225C83.7199 168.056 81.9579 179.29 81.7679 190.606C81.9668 201.926 83.7398 213.162 87.0359 223.993C90.5585 234.742 95.6911 244.896 102.259 254.106C108.358 262.941 116.323 271.047 125.935 278.196C135.721 285.454 145.768 290.755 155.755 293.962C157.771 294.762 159.847 295.398 161.964 295.865C162.605 296.023 163.247 296.186 163.883 296.355L165.46 296.768C167.63 297.405 169.848 297.867 172.092 298.149C173.261 298.312 174.403 298.491 175.545 298.692C177.176 298.953 178.872 299.236 180.536 299.405L191.186 299.948H428.126L438.771 299.405C440.402 299.231 442.093 298.959 443.724 298.698C444.866 298.513 446.007 298.333 447.155 298.154C449.406 297.87 451.631 297.407 453.809 296.768L455.391 296.355C456.022 296.186 456.663 296.023 457.305 295.865C459.402 295.405 461.458 294.775 463.454 293.984C473.506 290.766 483.537 285.465 493.355 278.218C502.967 271.063 510.937 262.957 517.032 254.133C523.596 244.917 528.729 234.761 532.255 224.009C535.539 213.173 537.299 201.933 537.485 190.612V190.623Z" fill="#586470"/>
<path d="M60.3916 190.62C60.5812 177.091 62.688 163.658 66.6492 150.72C70.8548 137.852 76.9962 125.7 84.862 114.681C92.2395 104.047 101.765 94.3587 113.16 85.8666C124.762 77.2604 136.777 70.9212 148.868 67.0123C151.385 66.0426 153.968 65.2558 156.599 64.6582L158.567 64.1526L160.165 63.734C162.901 62.9492 165.69 62.3623 168.51 61.9779C169.663 61.8094 170.832 61.6246 172.006 61.4343C174.126 61.1026 176.317 60.7547 178.492 60.5264L188.604 59.9827C197.303 59.825 206.137 59.8413 214.673 59.8576C219.441 59.8576 224.203 59.8576 228.966 59.8576L390.31 59.8576C395.078 59.8576 399.84 59.8576 404.608 59.8576C413.144 59.8576 421.973 59.825 430.655 59.9827L440.751 60.4937C442.964 60.7275 445.155 61.0755 447.275 61.4071C448.444 61.5919 449.618 61.7768 450.792 61.9508C453.6 62.328 456.377 62.9113 459.1 63.6959L460.731 64.1145C461.388 64.2831 462.046 64.4516 462.699 64.6147C465.35 65.2166 467.954 66.0125 470.489 66.996C482.526 70.8832 494.541 77.2223 506.143 85.8231C517.56 94.3097 527.063 104.003 534.446 114.637C542.308 125.656 548.448 137.806 552.654 150.672C556.614 163.611 558.721 177.046 558.911 190.577C558.718 204.119 556.604 217.566 552.632 230.514C548.425 243.382 542.284 255.535 534.419 266.554C527.047 277.182 517.527 286.871 506.121 295.368C494.53 303.969 482.515 310.313 470.413 314.228C467.888 315.202 465.295 315.99 462.655 316.587C462.008 316.75 461.361 316.913 460.714 317.082L459.148 317.49C456.402 318.279 453.602 318.868 450.771 319.251C449.618 319.414 448.444 319.599 447.269 319.795C445.155 320.132 442.964 320.475 440.789 320.708L430.682 321.219C421.984 321.382 413.176 321.361 404.657 321.344C399.873 321.344 395.094 321.344 390.315 321.344H228.982C224.198 321.344 219.419 321.344 214.635 321.344C206.116 321.344 197.303 321.382 188.637 321.219L178.541 320.708C176.328 320.475 174.137 320.132 172.017 319.795C170.843 319.61 169.668 319.425 168.494 319.251C165.668 318.872 162.873 318.287 160.132 317.501L158.572 317.093C157.925 316.924 157.273 316.761 156.626 316.598C153.966 315.996 151.355 315.199 148.813 314.211C136.766 310.324 124.756 303.98 113.16 295.384C101.743 286.898 92.2341 277.204 84.8566 266.57C76.9915 255.546 70.852 243.388 66.6492 230.514C62.6888 217.575 60.582 204.14 60.3916 190.609V190.62ZM557.454 190.62C557.267 177.233 555.182 163.94 551.262 151.139C547.103 138.41 541.027 126.389 533.245 115.491C525.954 104.987 516.543 95.4079 505.268 87.0137C493.791 78.5054 481.917 72.2369 469.973 68.3769C467.484 67.4186 464.929 66.6391 462.329 66.0446L460.35 65.5389L458.719 65.1203C456.055 64.3547 453.338 63.7842 450.591 63.4132C449.384 63.2392 448.205 63.0544 447.025 62.8696C444.926 62.5379 442.757 62.1954 440.615 61.9671L430.584 61.4615C421.94 61.3038 413.116 61.3201 404.586 61.3364C399.816 61.3364 395.05 61.3364 390.288 61.3364L228.982 61.3364C224.22 61.3364 219.454 61.3364 214.684 61.3364C206.154 61.3364 197.33 61.3038 188.664 61.4615L178.617 61.9725C176.513 62.1954 174.344 62.5162 172.24 62.8696C171.06 63.0544 169.88 63.2392 168.701 63.4132C165.945 63.7906 163.22 64.3647 160.546 65.1312L158.915 65.5444C158.262 65.7184 157.599 65.8815 156.936 66.05C154.347 66.6384 151.803 67.4106 149.324 68.3606C137.326 72.2423 125.452 78.5108 113.986 87.0246C102.716 95.4079 93.3269 104.966 86.0091 115.491C78.2392 126.392 72.1731 138.413 68.0192 151.139C64.1009 163.939 62.0161 177.23 61.8269 190.615C62.0169 204.003 64.1017 217.297 68.0192 230.101C72.1773 242.829 78.2529 254.848 86.0363 265.744C93.3269 276.247 102.738 285.827 114.013 294.221C125.485 302.724 137.358 308.998 149.308 312.858C151.805 313.821 154.369 314.602 156.979 315.196L158.931 315.696L160.497 316.103C163.17 316.874 165.895 317.45 168.652 317.827C169.859 317.995 171.038 318.18 172.218 318.371C174.317 318.702 176.491 319.039 178.628 319.268L188.659 319.773C197.287 319.936 206.094 319.92 214.608 319.898C219.392 319.898 224.171 319.898 228.955 319.898H390.31C395.094 319.898 399.873 319.898 404.657 319.898C413.171 319.898 421.978 319.936 430.633 319.773L440.675 319.268C442.773 319.039 444.948 318.724 447.047 318.371C448.226 318.18 449.406 317.995 450.591 317.827C453.361 317.453 456.099 316.877 458.784 316.103L460.355 315.696C461.002 315.527 461.649 315.364 462.302 315.196C464.891 314.607 467.435 313.833 469.913 312.88C481.917 308.998 493.796 302.724 505.251 294.221C516.527 285.827 525.938 276.247 533.228 265.744C541.009 254.844 547.084 242.824 551.245 230.096C555.171 217.293 557.262 203.999 557.454 190.609V190.62Z" fill="#586470"/>
<path d="M40.423 190.622C40.6118 175.021 43.0396 159.528 47.632 144.617C52.4628 129.772 59.5342 115.752 68.6011 103.043C77.1747 90.7456 88.1405 79.5787 101.221 69.8797C114.492 60.0339 128.345 52.7216 142.404 48.1331C145.408 46.9948 148.484 46.0594 151.613 45.3332L155.082 44.4416C158.358 43.514 161.693 42.8092 165.064 42.3321C166.211 42.1636 167.374 41.9788 168.543 41.7885C171.174 41.3753 173.887 40.9512 176.579 40.6631L191.116 39.9346L428.127 39.9346L442.643 40.6631C445.361 40.9512 448.08 41.3753 450.722 41.7885C451.885 41.9679 453.054 42.1527 454.223 42.3321C457.587 42.807 460.915 43.51 464.183 44.4361L467.652 45.3223C470.791 46.0561 473.879 46.9969 476.894 48.1385C490.91 52.6998 504.762 60.0121 518.033 69.8525C531.081 79.5787 542.058 90.7456 550.653 103.049C559.727 115.754 566.806 129.773 571.644 144.617C576.24 159.524 578.669 175.014 578.858 190.612C578.672 206.215 576.242 221.71 571.644 236.622C566.809 251.473 559.731 265.497 550.653 278.207C542.079 290.505 531.114 301.666 518.033 311.371C504.768 321.216 490.91 328.534 476.845 333.117C473.831 334.26 470.744 335.195 467.603 335.917L464.08 336.825C460.827 337.747 457.516 338.446 454.169 338.918C453.027 339.087 451.858 339.272 450.689 339.462C448.063 339.87 445.345 340.299 442.648 340.582L428.116 341.31H191.154L176.627 340.587C173.909 340.299 171.191 339.87 168.549 339.462C167.38 339.277 166.216 339.092 165.047 338.918C161.706 338.444 158.4 337.745 155.153 336.825L151.63 335.917C148.489 335.188 145.401 334.247 142.387 333.101C128.372 328.545 114.514 321.233 101.248 311.387C88.2003 301.661 77.2237 290.494 68.6283 278.196C59.5521 265.492 52.4731 251.473 47.6373 236.627C43.0425 221.719 40.613 206.227 40.423 190.628V190.622ZM577.423 190.622C577.234 175.171 574.829 159.826 570.279 145.058C565.484 130.353 558.472 116.468 549.484 103.881C540.992 91.7024 530.13 80.6497 517.196 71.0159C504.055 61.2626 490.339 54.021 476.421 49.4922C473.447 48.3667 470.401 47.4422 467.304 46.725L463.846 45.817C460.634 44.9079 457.365 44.2159 454.06 43.7457C452.869 43.5717 451.695 43.3868 450.526 43.202C447.917 42.7888 445.215 42.3702 442.561 42.1147L428.111 41.3916L191.154 41.3916L176.698 42.1201C174.083 42.3974 171.381 42.816 168.771 43.2074C167.597 43.3869 166.428 43.5717 165.254 43.7511C161.949 44.2237 158.68 44.9175 155.468 45.8279L151.994 46.725C148.906 47.4372 145.869 48.3562 142.904 49.4759C128.943 54.021 115.226 61.2626 102.08 71.0214C89.1517 80.6497 78.2892 91.6807 69.8026 103.875C60.8101 116.464 53.7955 130.354 49.002 145.063C44.4491 159.832 42.0433 175.179 41.8583 190.633C42.0433 206.091 44.4491 221.441 49.002 236.214C53.7949 250.918 60.8076 264.802 69.7972 277.386C78.2892 289.564 89.1463 300.622 102.086 310.251C115.22 320.004 128.943 327.246 142.86 331.774C145.838 332.901 148.887 333.827 151.989 334.547L155.517 335.455C158.707 336.358 161.955 337.045 165.238 337.51C166.434 337.684 167.603 337.869 168.777 338.054C171.387 338.461 174.089 338.886 176.747 339.141L191.192 339.864H428.127L442.583 339.141C445.198 338.864 447.9 338.44 450.515 338.054C451.684 337.869 452.853 337.684 454.027 337.51C457.316 337.042 460.569 336.351 463.764 335.444L467.293 334.536C470.37 333.82 473.396 332.899 476.35 331.78C490.312 327.235 504.034 319.993 517.169 310.234C530.102 300.611 540.965 289.575 549.452 277.381C558.445 264.792 565.46 250.902 570.252 236.192C574.813 221.421 577.228 206.07 577.423 190.612V190.622Z" fill="#586470"/>
<path d="M20.4585 190.622C20.6418 172.956 23.3887 155.41 28.6135 138.533C34.0837 121.707 42.1017 105.82 52.3881 91.4247C62.174 77.4471 74.575 64.7851 89.2866 53.852C104.227 42.7612 119.928 34.4758 135.949 29.2348C139.454 27.9201 143.038 26.8305 146.681 25.9728L150.041 25.103C153.844 24.0401 157.71 23.2194 161.616 22.6456C162.703 22.4879 163.791 22.314 164.851 22.1454C168.064 21.6453 171.375 21.1288 174.675 20.7863L191.121 19.9653L428.126 19.9653L431.421 20.0958L444.561 20.7808C447.883 21.1288 451.21 21.6453 454.423 22.1454C455.511 22.314 456.598 22.4879 457.685 22.651C461.585 23.2215 465.443 24.0405 469.238 25.103L472.603 25.9728C476.261 26.8316 479.86 27.9212 483.379 29.2348C499.346 34.4703 515.047 42.7558 529.982 53.8248C544.699 64.7797 557.116 77.4199 566.891 91.3975C577.172 105.794 585.188 121.679 590.66 138.501C595.886 155.379 598.633 172.927 598.815 190.595C598.635 208.265 595.888 225.814 590.66 242.694C585.191 259.529 577.173 275.425 566.886 289.83C557.1 303.802 544.699 316.442 529.987 327.397C515.053 338.488 499.357 346.768 483.33 352.02C479.802 353.331 476.196 354.42 472.533 355.282L469.271 356.119C465.449 357.19 461.563 358.016 457.636 358.593C456.549 358.756 455.462 358.93 454.347 359.098C451.15 359.599 447.823 360.115 444.561 360.458L428.121 361.273H191.153L187.859 361.143L174.718 360.452C171.456 360.11 168.151 359.599 164.976 359.104C163.852 358.93 162.729 358.758 161.605 358.587C157.687 358.009 153.81 357.179 149.998 356.103L146.736 355.266C143.057 354.409 139.436 353.32 135.895 352.004C119.911 346.779 104.216 338.493 89.2812 327.403C74.5641 316.448 62.1523 303.808 52.3717 289.825C42.0882 275.43 34.0721 259.545 28.6027 242.721C23.3784 225.845 20.6314 208.299 20.4477 190.633L20.4585 190.622ZM597.391 190.622C597.202 173.105 594.473 155.708 589.29 138.974C583.864 122.292 575.914 106.541 565.717 92.2674C556.024 78.4094 543.72 65.8833 529.128 55.0209C514.313 43.9953 498.754 35.786 482.873 30.5886C479.396 29.2925 475.841 28.2158 472.228 27.3646L468.868 26.4948C465.118 25.4486 461.304 24.6406 457.451 24.0754C456.364 23.9069 455.277 23.7384 454.189 23.5698C450.993 23.0697 447.666 22.5532 444.436 22.2161L428.083 21.4006L191.153 21.4006L187.891 21.5365L174.773 22.2215C171.56 22.5532 168.249 23.0697 165.057 23.5698C163.97 23.7366 162.883 23.9033 161.795 24.07C157.942 24.6375 154.129 25.4474 150.378 26.4948L147.013 27.3646C143.416 28.2133 139.876 29.2846 136.412 30.5722C120.498 35.7806 104.939 43.9953 90.1239 54.9991C75.5319 65.8724 63.2233 78.3767 53.5406 92.2456C43.3554 106.523 35.4164 122.276 29.9999 138.957C24.8173 155.691 22.0923 173.089 21.9101 190.606C22.0919 208.123 24.8188 225.521 30.0053 242.254C35.1701 258.428 43.1077 274.14 53.5786 288.96C63.2722 302.818 75.5807 315.35 90.1673 326.212C104.977 337.21 120.542 345.42 136.412 350.617C139.911 351.93 143.49 353.02 147.127 353.879L150.389 354.716C154.137 355.781 157.948 356.608 161.801 357.19C162.942 357.359 164.068 357.533 165.199 357.707C168.352 358.201 171.619 358.712 174.832 359.044L191.186 359.859H428.126L431.388 359.724L444.507 359.044C447.704 358.707 450.993 358.196 454.173 357.696C455.261 357.527 456.38 357.353 457.484 357.19C461.356 356.62 465.188 355.803 468.955 354.744L472.217 353.912C475.823 353.053 479.371 351.969 482.841 350.666C498.765 345.452 514.324 337.238 529.128 326.239C543.72 315.366 556.029 302.862 565.712 288.998C575.914 274.723 583.866 258.967 589.29 242.281C594.476 225.542 597.205 208.139 597.391 190.616V190.622Z" fill="#586470"/>
</g>
<defs>
<clipPath id="clip0_78_2522">
<rect width="381.24" height="618.3" fill="white" transform="matrix(0 1 -1 0 618.79 0)"/>
</clipPath>
</defs>
</svg>
