<svg width="280" height="900" viewBox="0 0 280 900" fill="none" xmlns="http://www.w3.org/2000/svg">
<g opacity="0.18" clip-path="url(#clip0_136_442)">
<path d="M1.65076 725.615C-8.99903 725.33 -19.5671 723.668 -29.7901 720.669C-39.8838 717.307 -49.4232 712.467 -58.0971 706.306C-66.2561 700.767 -73.9244 693.249 -80.8884 683.895C-88.0581 674.177 -92.9171 664.989 -95.7343 655.809C-96.4972 654.068 -97.0652 652.247 -97.4279 650.381C-97.594 649.66 -97.7523 648.948 -97.9422 648.236C-98.1322 647.524 -98.2904 646.962 -98.4645 646.337C-99.0801 644.389 -99.486 642.38 -99.6753 640.346C-99.8178 639.104 -100.039 637.814 -100.261 636.524C-100.483 635.234 -100.712 633.912 -100.862 632.567C-100.862 629.829 -101.021 627.162 -101.226 624.543L-101.393 622.525V277.491L-101.226 275.386C-101.021 272.782 -100.902 270.123 -100.87 267.472C-100.712 266.048 -100.483 264.742 -100.261 263.436C-100.039 262.131 -99.8178 260.857 -99.6674 259.559C-99.4795 257.54 -99.0736 255.547 -98.4566 253.616C-98.2825 252.99 -98.1084 252.365 -97.9502 251.74C-97.7919 251.115 -97.594 250.3 -97.4279 249.588C-97.0527 247.669 -96.4662 245.798 -95.6789 244.008C-92.9171 234.971 -88.0581 225.807 -80.8884 216.073C-73.9323 206.719 -66.264 199.178 -58.0892 193.654C-49.4261 187.497 -39.8972 182.659 -29.8138 179.299C-19.5834 176.297 -9.0071 174.635 1.65076 174.353C12.3212 174.633 22.9106 176.293 33.1549 179.291C43.2505 182.655 52.7923 187.495 61.4699 193.654C69.6288 199.194 77.2971 206.712 84.2532 216.065C91.423 225.791 96.2819 234.971 99.1071 244.151C99.87 245.901 100.438 247.729 100.801 249.603C100.959 250.316 101.125 251.02 101.307 251.724C101.489 252.429 101.647 252.975 101.821 253.584C102.446 255.544 102.854 257.566 103.04 259.614C103.183 260.849 103.404 262.131 103.626 263.413C103.847 264.695 104.077 266.04 104.227 267.369C104.275 270.131 104.393 272.798 104.591 275.394L104.757 277.412V622.445L104.583 624.551C104.385 627.154 104.267 629.821 104.227 632.464C104.069 633.896 103.839 635.21 103.618 636.524C103.396 637.837 103.175 639.088 103.024 640.386C102.84 642.41 102.434 644.408 101.814 646.345C101.639 646.962 101.465 647.579 101.307 648.204C101.149 648.829 100.951 649.621 100.793 650.333C100.417 652.256 99.83 654.133 99.0438 655.928C96.274 664.957 91.4229 674.129 84.2453 683.871C77.2892 693.217 69.6209 700.759 61.4461 706.282C52.7812 712.441 43.2494 717.279 33.1628 720.638C22.9356 723.642 12.3618 725.307 1.70616 725.592L1.65076 725.615ZM1.65076 176.474C-8.80338 176.756 -19.1771 178.389 -29.2124 181.333C-39.0892 184.633 -48.423 189.377 -56.9101 195.411C-64.9028 200.816 -72.405 208.191 -79.2186 217.355C-86.238 226.852 -90.9862 235.849 -93.7401 244.8C-94.4759 246.493 -95.0277 248.26 -95.3861 250.07C-95.5523 250.814 -95.7264 251.55 -95.9243 252.278C-96.1221 253.006 -96.2646 253.552 -96.4387 254.193C-97.0197 255.993 -97.4019 257.85 -97.5782 259.733C-97.7365 261.133 -97.966 262.463 -98.1955 263.792C-98.425 265.122 -98.6386 266.325 -98.789 267.607C-98.789 270.195 -98.9314 272.901 -99.1372 275.52L-99.3034 277.546V622.469L-99.1372 624.408C-98.9314 627.083 -98.8127 629.789 -98.7811 632.464C-98.6386 633.635 -98.4171 634.902 -98.1955 636.168C-97.9739 637.434 -97.7365 638.827 -97.5861 640.172C-97.4134 642.076 -97.0313 643.955 -96.4466 645.775C-96.2645 646.416 -96.0825 647.065 -95.9163 647.714C-95.7502 648.363 -95.5523 649.17 -95.3861 649.906C-95.0466 651.673 -94.5159 653.397 -93.8034 655.05C-91.002 664.15 -86.2459 673.124 -79.2186 682.652C-72.405 691.816 -64.9028 699.192 -56.9259 704.581C-48.4252 710.625 -39.075 715.375 -29.1807 718.675C-19.1443 721.612 -8.77106 723.243 1.68242 723.526C12.1364 723.241 22.5098 721.608 32.5456 718.667C42.4231 715.369 51.7571 710.624 60.2433 704.589C68.236 699.192 75.7381 691.808 82.5439 682.644C89.5791 673.148 94.3273 664.142 97.0733 655.192C97.8216 653.492 98.3764 651.714 98.7272 649.89C98.9013 649.154 99.0675 648.426 99.2654 647.698C99.4632 646.97 99.6056 646.44 99.7797 645.806C100.36 644.007 100.742 642.149 100.919 640.267C101.078 638.866 101.307 637.545 101.537 636.223C101.766 634.902 101.972 633.675 102.13 632.385C102.13 629.797 102.28 627.091 102.478 624.471L102.644 622.445V277.531L102.478 275.592C102.28 272.941 102.154 270.234 102.122 267.536C101.972 266.356 101.758 265.082 101.537 263.808C101.315 262.534 101.078 261.165 100.927 259.851C100.752 257.937 100.367 256.048 99.7797 254.217C99.5951 253.584 99.421 252.951 99.2574 252.318C99.0675 251.605 98.9013 250.87 98.7272 250.141C98.3916 248.366 97.8608 246.633 97.1445 244.974C94.3352 235.881 89.587 226.899 82.5518 217.371C75.7381 208.215 68.236 200.832 60.267 195.443C51.7644 189.397 42.4114 184.647 32.5139 181.348C22.469 178.398 12.0845 176.759 1.6191 176.474H1.65076Z" fill="#586470"/>
<path d="M1.63754 899.999C-27.0834 899.73 -55.6105 895.261 -83.0383 886.736C-110.409 877.849 -136.253 864.811 -159.666 848.078C-182.449 832.108 -203.025 811.937 -220.751 788.109C-238.707 763.933 -252.184 738.403 -260.794 712.225C-262.962 706.332 -264.775 700.315 -266.223 694.206L-267.331 689.948C-269.111 683.547 -270.498 677.043 -271.485 670.473L-272.142 666.255C-273.013 660.715 -273.915 654.915 -274.516 649.217C-274.975 642.095 -275.355 634.87 -275.64 627.85L-275.83 622.508V277.53L-275.632 272.228C-275.347 265.177 -274.967 257.984 -274.509 250.862C-273.915 245.116 -273.013 239.347 -272.134 233.776L-271.485 229.495C-270.497 222.927 -269.107 216.425 -267.323 210.027L-266.223 205.754C-264.779 199.641 -262.966 193.621 -260.794 187.727C-252.208 161.612 -238.731 136.067 -220.783 111.898C-203.025 88.0706 -182.449 67.8909 -159.69 51.9212C-136.281 35.1881 -110.439 22.1526 -83.0699 13.2711C-55.6353 4.73921 -27.0998 0.268129 1.62964 0C30.3505 0.269921 58.8776 4.73826 86.3055 13.2632C113.679 22.1506 139.525 35.1885 162.941 51.9212C185.716 67.8909 206.26 88.0706 224.003 111.898C241.959 136.059 255.428 161.596 264.038 187.782C266.216 193.689 268.034 199.722 269.482 205.849L270.59 210.122C272.368 216.491 273.764 222.96 274.769 229.495L275.449 233.918C276.312 239.458 277.198 245.124 277.823 250.751C278.243 257.984 278.622 265.106 278.915 272.228L279.113 277.53V622.469L278.915 627.811C278.63 634.862 278.251 642.055 277.792 649.177C277.198 654.923 276.304 660.692 275.417 666.271L274.761 670.497C273.906 677.112 272.212 683.673 270.59 690.019L269.514 694.158C268.06 700.303 266.237 706.355 264.053 712.281C255.459 738.395 241.99 763.941 224.034 788.109C206.292 811.945 185.74 832.116 162.965 848.086C139.554 864.818 113.713 877.856 86.345 886.744C58.9171 895.269 30.3901 899.737 1.66922 900.007L1.63754 899.999ZM1.63754 2.08919C-26.8824 2.35124 -55.2103 6.78771 -82.4447 15.2574C-109.607 24.0779 -135.253 37.0171 -158.487 53.6226C-181.088 69.4736 -201.442 89.495 -219.081 113.165C-236.903 137.151 -250.269 162.482 -258.808 188.455C-260.962 194.301 -262.764 200.27 -264.205 206.332L-265.297 210.581C-266.88 216.857 -268.581 223.338 -269.42 229.827L-270.077 234.085C-270.947 239.624 -271.842 245.377 -272.451 251.028C-272.91 258.095 -273.29 265.272 -273.567 272.292L-273.765 277.594V622.469L-273.567 627.731C-273.29 634.767 -272.91 641.936 -272.451 649.043C-271.865 654.646 -270.971 660.391 -270.077 665.938L-269.42 670.18C-268.581 676.685 -266.911 683.166 -265.305 689.434L-264.205 693.684C-262.774 699.729 -260.979 705.683 -258.832 711.513C-250.269 737.549 -236.903 762.872 -219.081 786.858C-201.474 810.504 -181.096 830.526 -158.487 846.369C-135.25 862.982 -109.598 875.924 -82.4289 884.742C-55.1993 893.209 -26.877 897.646 1.63754 897.91C30.1572 897.645 58.4847 893.209 85.7198 884.742C112.894 875.928 138.552 862.988 161.794 846.377C184.395 830.549 204.78 810.504 222.396 786.858C240.21 762.872 253.576 737.541 262.123 711.568C264.277 705.7 266.082 699.71 267.528 693.628L268.596 689.489C270.361 683.15 271.741 676.71 272.727 670.204L273.392 665.938C274.254 660.399 275.156 654.646 275.766 648.995C276.225 641.936 276.557 634.751 276.889 627.724L277.079 622.429V277.53L276.889 272.268C276.597 265.241 276.225 258.071 275.766 250.964C275.196 245.425 274.31 239.759 273.455 234.275L272.766 229.819C271.776 223.35 270.394 216.946 268.628 210.645L267.528 206.371C266.087 200.308 264.288 194.336 262.138 188.486C253.576 162.459 240.21 137.127 222.388 113.141C204.78 89.495 184.403 69.4736 161.801 53.6226C137.728 36.6163 112.136 23.7408 85.7119 15.2574C58.4777 6.7866 30.1496 2.3501 1.62964 2.08919H1.63754Z" fill="#586470"/>
<path d="M1.64316 754.673C-12.0213 754.396 -25.5849 752.267 -38.6767 748.342C-51.6666 744.066 -63.9384 737.858 -75.0794 729.927C-85.6678 722.679 -95.4807 713.032 -104.233 701.264C-113.128 689.275 -119.53 677.112 -123.273 665.218C-124.247 662.86 -124.999 660.418 -125.521 657.921C-125.719 657.13 -125.916 656.275 -126.138 655.452L-126.708 653.316C-127.493 650.733 -128.039 648.084 -128.338 645.402C-128.528 643.954 -128.773 642.458 -129.019 640.971C-129.327 639.119 -129.628 637.259 -129.81 635.384C-129.921 631.902 -130.087 628.514 -130.301 625.096L-130.467 622.524V277.49L-130.293 274.855C-130.082 271.468 -129.921 268.076 -129.81 264.678C-129.596 262.723 -129.296 260.872 -129.019 259.02C-128.773 257.524 -128.528 256.028 -128.33 254.533C-128.035 251.85 -127.492 249.201 -126.708 246.619L-126.138 244.482C-125.916 243.691 -125.719 242.829 -125.521 241.998C-124.987 239.466 -124.222 236.989 -123.234 234.598C-119.53 222.815 -113.128 210.691 -104.241 198.671C-95.4807 186.895 -85.6678 177.248 -75.0715 169.992C-63.9473 162.07 -51.6944 155.867 -38.7242 151.592C-25.6194 147.666 -12.0423 145.537 1.63524 145.262C15.3127 145.538 28.8894 147.668 41.9947 151.592C54.9701 155.87 67.2282 162.075 78.3578 170C88.9541 177.256 98.7749 186.903 107.527 198.671C116.422 210.699 122.824 222.823 126.575 234.725C127.537 237.066 128.284 239.49 128.807 241.966C129.013 242.805 129.211 243.644 129.432 244.475C129.654 245.305 129.82 245.946 130.018 246.675C130.793 249.257 131.323 251.906 131.601 254.588C131.798 256.068 132.044 257.58 132.289 259.099C132.598 260.927 132.891 262.755 133.08 264.638C133.199 268.12 133.357 271.507 133.571 274.926L133.745 277.49V622.524L133.571 625.167C133.36 628.549 133.202 631.938 133.096 635.336C132.875 637.267 132.582 639.103 132.305 640.931C132.06 642.45 131.814 643.962 131.616 645.481C131.324 648.137 130.794 650.762 130.034 653.324C129.836 654.044 129.638 654.772 129.456 655.5C129.227 656.347 129.029 657.186 128.823 658.024C128.288 660.541 127.528 663.004 126.552 665.384C122.84 677.175 116.43 689.307 107.559 701.312C98.8066 713.087 88.9858 722.734 78.3895 729.991C67.2636 737.912 55.0112 744.116 42.0422 748.398C28.9372 752.323 15.3603 754.453 1.68275 754.729L1.64316 754.673ZM1.64316 147.414C-11.8168 147.694 -25.1771 149.792 -38.0753 153.65C-50.8389 157.869 -62.8965 163.98 -73.8448 171.78C-84.2671 178.902 -93.9138 188.399 -102.532 199.984C-111.284 211.855 -117.568 223.725 -121.263 235.413C-122.214 237.716 -122.953 240.1 -123.471 242.536C-123.669 243.382 -123.875 244.221 -124.096 245.052C-124.278 245.764 -124.476 246.493 -124.666 247.213C-125.431 249.674 -125.961 252.201 -126.249 254.762C-126.455 256.345 -126.7 257.856 -126.953 259.368C-127.246 261.188 -127.547 263.008 -127.745 264.844C-127.847 268.184 -128.006 271.595 -128.227 275.005L-128.401 277.577V622.468L-128.235 624.969C-128.014 628.377 -127.85 631.791 -127.745 635.209C-127.547 636.966 -127.246 638.786 -126.953 640.606C-126.708 642.126 -126.462 643.637 -126.265 645.165C-125.972 647.743 -125.443 650.289 -124.682 652.77C-124.492 653.49 -124.294 654.21 -124.112 654.93C-123.93 655.65 -123.693 656.592 -123.487 657.431C-122.982 659.84 -122.256 662.198 -121.319 664.474C-117.599 676.265 -111.3 688.215 -102.54 700.014C-93.9296 711.6 -84.2829 721.088 -73.8686 728.218C-62.9111 736.022 -50.8424 742.133 -38.0674 746.348C-25.1718 750.206 -11.8141 752.304 1.64316 752.584C15.1111 752.3 28.4792 750.2 41.3854 746.34C54.1508 742.12 66.2108 736.009 77.1628 728.21C87.5771 721.088 97.2239 711.592 105.842 700.006C114.594 688.183 120.878 676.265 124.573 664.577C125.525 662.276 126.259 659.892 126.765 657.455C126.979 656.6 127.185 655.745 127.414 654.898C127.644 654.052 127.794 653.434 127.992 652.699C128.744 650.248 129.274 647.734 129.575 645.188C129.773 643.606 130.026 642.023 130.279 640.512C130.572 638.715 130.873 636.919 131.07 635.107C131.165 631.767 131.324 628.356 131.553 624.945L131.719 622.374V277.53L131.553 275.029C131.326 271.621 131.163 268.192 131.062 264.741C130.865 263.016 130.564 261.22 130.271 259.423C130.018 257.888 129.765 256.345 129.567 254.794C129.274 252.234 128.745 249.706 127.984 247.244C127.786 246.508 127.588 245.764 127.398 245.029C127.209 244.293 126.971 243.335 126.757 242.48C126.26 240.086 125.54 237.744 124.605 235.485C120.886 223.693 114.586 211.744 105.834 199.937C97.2159 188.359 87.5693 178.871 77.1549 171.741C66.1992 163.939 54.1334 157.827 41.3616 153.61C28.4544 149.762 15.0857 147.677 1.61943 147.414H1.64316Z" fill="#586470"/>
<path d="M1.64174 783.742C-15.0365 783.465 -31.5949 780.868 -47.5572 776.026C-63.4119 770.82 -78.3878 763.246 -91.9764 753.559C-105.01 744.57 -116.968 732.818 -127.516 718.637C-138.224 704.178 -146.05 689.356 -150.767 674.621C-151.953 671.623 -152.898 668.535 -153.592 665.386C-153.813 664.484 -154.035 663.582 -154.28 662.679L-154.882 660.353C-155.84 657.098 -156.533 653.772 -156.955 650.405C-157.177 648.823 -157.438 647.145 -157.699 645.491C-158.087 643.117 -158.49 640.608 -158.759 638.131L-159.551 622.526V277.531L-158.759 261.933C-158.482 259.393 -158.087 256.908 -157.699 254.51C-157.438 252.856 -157.177 251.21 -156.955 249.556C-156.529 246.206 -155.836 242.896 -154.882 239.656L-154.28 237.33C-154.035 236.42 -153.813 235.51 -153.592 234.608C-152.886 231.429 -151.928 228.312 -150.727 225.285C-146.05 210.629 -138.231 195.823 -127.524 181.373C-116.96 167.183 -105.002 155.432 -91.9685 146.434C-78.3866 136.755 -63.4188 129.185 -47.5731 123.983C-31.6061 119.137 -15.0422 116.537 1.64174 116.259C18.3338 116.533 34.9062 119.132 50.8803 123.983C66.7336 129.183 81.7073 136.755 95.2915 146.442C108.325 155.44 120.291 167.191 130.832 181.373C141.547 195.815 149.365 210.653 154.082 225.38C155.266 228.356 156.205 231.424 156.891 234.552C157.121 235.478 157.35 236.404 157.595 237.322L158.197 239.617C159.151 242.883 159.844 246.22 160.27 249.596C160.492 251.179 160.753 252.848 161.014 254.495C161.402 256.869 161.805 259.393 162.075 261.87L162.866 277.476V622.51L162.075 638.108C161.805 640.648 161.402 643.141 161.014 645.546C160.753 647.192 160.492 648.838 160.223 650.484C159.799 653.847 159.109 657.171 158.157 660.424L157.556 662.711C157.311 663.637 157.081 664.563 156.852 665.481C156.158 668.645 155.205 671.747 154.003 674.756C149.326 689.412 141.507 704.218 130.8 718.668C120.251 732.849 108.294 744.601 95.244 753.607C81.6642 763.29 66.6959 770.859 50.8486 776.058C34.8846 780.905 18.3231 783.505 1.64174 783.782V783.742ZM1.64174 118.348C-14.8304 118.624 -31.1838 121.192 -46.9479 125.977C-62.5921 131.106 -77.3685 138.577 -90.7735 148.135C-103.625 156.999 -115.424 168.6 -125.847 182.599C-136.411 196.844 -144.127 211.468 -148.796 226.005C-149.966 228.963 -150.897 232.009 -151.582 235.114C-151.803 236.024 -152.033 236.942 -152.27 237.852L-152.888 240.187C-153.813 243.332 -154.483 246.548 -154.89 249.802C-155.127 251.511 -155.388 253.173 -155.681 254.835C-156.061 257.209 -156.472 259.67 -156.726 262.092L-157.517 277.594V622.47L-156.726 637.965C-156.464 640.339 -156.069 642.785 -155.689 645.167C-155.428 646.828 -155.159 648.49 -154.898 650.168C-154.488 653.436 -153.813 656.664 -152.88 659.823L-152.27 662.197C-152.033 663.099 -151.803 664.009 -151.582 664.927C-150.902 667.994 -149.981 671.003 -148.828 673.925C-144.143 688.557 -136.427 703.205 -125.878 717.45C-115.472 731.449 -103.673 743.042 -90.821 751.913C-77.4064 761.47 -62.6225 768.941 -46.9716 774.072C-31.2064 778.851 -14.8534 781.416 1.618 781.692C18.0944 781.403 34.4505 778.822 50.2155 774.024C65.8629 768.897 80.6422 761.426 94.0491 751.866C106.909 742.987 118.708 731.393 129.114 717.402C139.679 703.158 147.395 688.533 152.064 673.996C153.227 671.062 154.154 668.04 154.834 664.958C155.063 664.025 155.3 663.091 155.546 662.165L156.147 659.87C157.075 656.711 157.748 653.482 158.157 650.215C158.395 648.514 158.656 646.852 158.949 645.19C159.329 642.816 159.74 640.347 159.985 637.926L160.777 622.423V277.531L159.985 262.036C159.732 259.662 159.336 257.201 158.957 254.827C158.688 253.165 158.426 251.503 158.165 249.833C157.752 246.556 157.077 243.317 156.147 240.147L155.546 237.844C155.3 236.926 155.063 235.992 154.834 235.059C154.163 232.006 153.247 229.013 152.095 226.108C147.411 211.476 139.695 196.875 129.146 182.583C118.732 168.592 106.932 156.991 94.0886 148.12C80.6732 138.565 65.8895 131.094 50.2393 125.961C34.4664 121.181 18.1051 118.619 1.62592 118.348H1.64174Z" fill="#586470"/>
<path d="M1.63409 812.807C-18.0585 812.531 -37.6124 809.465 -56.4439 803.699C-75.1751 797.577 -92.8645 788.638 -108.903 777.188C-124.382 766.449 -138.484 752.585 -150.845 735.998C-163.373 719.11 -172.6 701.621 -178.29 684.021C-179.701 680.357 -180.847 676.596 -181.716 672.768L-182.452 669.903L-183.062 667.577C-184.204 663.594 -185.058 659.534 -185.618 655.429C-185.863 653.751 -186.132 652.05 -186.409 650.341C-186.892 647.254 -187.398 644.065 -187.731 640.9L-188.522 626.18C-188.752 613.519 -188.728 600.659 -188.704 588.235C-188.704 581.294 -188.704 574.362 -188.704 567.43V332.577C-188.704 325.637 -188.704 318.705 -188.704 311.764C-188.704 299.34 -188.752 286.488 -188.522 273.85L-187.778 259.155C-187.438 255.934 -186.932 252.745 -186.449 249.658C-186.18 247.957 -185.911 246.248 -185.657 244.538C-185.108 240.451 -184.259 236.409 -183.117 232.446L-182.508 230.072C-182.263 229.115 -182.017 228.157 -181.78 227.207C-180.904 223.348 -179.745 219.557 -178.314 215.867C-172.655 198.346 -163.428 180.857 -150.909 163.97C-138.556 147.351 -124.446 133.518 -108.967 122.771C-92.9285 111.327 -75.2422 102.391 -56.5152 96.2687C-37.6808 90.5035 -18.1243 87.4368 1.5708 87.1602C21.2834 87.4417 40.8563 90.5191 59.7042 96.3004C78.4348 102.424 96.1239 111.363 112.164 122.811C127.635 133.542 141.737 147.399 154.106 164.001C166.625 180.873 175.86 198.362 181.558 215.978C182.976 219.654 184.124 223.428 184.993 227.271C185.23 228.212 185.467 229.154 185.713 230.096L186.306 232.375C187.455 236.373 188.312 240.448 188.87 244.57C189.108 246.248 189.377 247.957 189.662 249.666C190.152 252.745 190.651 255.934 190.991 259.099L191.735 273.811C191.972 286.473 191.941 299.293 191.917 311.693C191.917 318.657 191.917 325.613 191.917 332.569V567.406C191.917 574.37 191.917 581.326 191.917 588.29C191.917 600.691 191.972 613.519 191.735 626.133L190.991 640.829C190.651 644.049 190.152 647.239 189.662 650.325C189.393 652.034 189.123 653.744 188.87 655.453C188.318 659.567 187.466 663.634 186.322 667.624L185.729 669.895C185.483 670.837 185.246 671.787 185.008 672.728C184.132 676.599 182.971 680.4 181.534 684.1C175.876 701.637 166.641 719.118 154.129 735.998C141.776 752.616 127.666 766.457 112.187 777.196C96.1404 788.644 78.443 797.581 59.7042 803.699C40.8697 809.463 21.3133 812.53 1.61827 812.807H1.63409ZM1.63409 89.281C-17.8519 89.5535 -37.2008 92.5882 -55.8346 98.2946C-74.3634 104.349 -91.8609 113.192 -107.724 124.52C-123.013 135.133 -136.957 148.831 -149.176 165.244C-161.561 181.949 -170.685 199.233 -176.304 216.619C-177.699 220.242 -178.833 223.961 -179.699 227.746L-180.434 230.626L-181.044 233C-182.158 236.878 -182.989 240.832 -183.529 244.831C-183.782 246.588 -184.051 248.305 -184.32 250.022C-184.803 253.077 -185.301 256.235 -185.634 259.353L-186.37 273.953C-186.599 286.536 -186.575 299.38 -186.552 311.796C-186.552 318.739 -186.552 325.677 -186.552 332.609V567.406C-186.552 574.338 -186.552 581.276 -186.552 588.219C-186.552 600.635 -186.599 613.479 -186.37 626.093L-185.626 640.718C-185.301 643.78 -184.834 646.938 -184.32 650C-184.051 651.718 -183.782 653.435 -183.529 655.152C-182.979 659.164 -182.144 663.13 -181.028 667.023L-180.427 669.397C-180.173 670.346 -179.936 671.312 -179.691 672.277C-178.834 676.045 -177.71 679.748 -176.327 683.356C-170.677 700.822 -161.553 718.105 -149.16 734.795C-136.957 751.2 -123.045 764.867 -107.724 775.518C-91.8559 786.828 -74.3591 795.658 -55.8346 801.704C-37.2029 807.408 -17.857 810.443 1.62617 810.718C21.1144 810.441 40.4654 807.407 59.1028 801.704C77.6298 795.652 95.1249 786.808 110.984 775.479C126.274 764.867 140.217 751.168 152.436 734.755C164.813 718.057 173.945 700.774 179.564 683.38C180.966 679.745 182.103 676.013 182.967 672.214L183.695 669.373L184.288 667.094C185.41 663.203 186.249 659.236 186.797 655.223C187.042 653.467 187.311 651.749 187.588 650.032C188.071 646.977 188.562 643.812 188.894 640.702L189.63 626.101C189.867 613.542 189.844 600.722 189.812 588.33C189.812 581.366 189.812 574.41 189.812 567.446V332.577C189.812 325.613 189.812 318.657 189.812 311.693C189.812 299.301 189.867 286.48 189.63 273.882L188.894 259.266C188.562 256.211 188.103 253.045 187.588 249.991C187.311 248.273 187.042 246.556 186.797 244.831C186.253 240.8 185.415 236.814 184.288 232.905L183.695 230.618C183.449 229.677 183.212 228.735 182.967 227.785C182.11 224.016 180.984 220.313 179.596 216.706C173.945 199.233 164.813 181.942 152.436 165.268C140.217 148.855 126.274 135.156 110.984 124.544C95.1193 113.219 77.6223 104.376 59.0949 98.3184C40.4596 92.6037 21.108 89.5609 1.61827 89.281H1.63409Z" fill="#586470"/>
<path d="M1.63483 841.875C-21.074 841.6 -43.6258 838.066 -65.3302 831.381C-86.9393 824.349 -107.347 814.056 -125.846 800.858C-143.746 788.379 -160.001 772.417 -174.119 753.377C-188.45 734.06 -199.094 713.896 -205.773 693.431C-207.43 689.059 -208.792 684.58 -209.849 680.025L-211.147 674.977C-212.497 670.208 -213.523 665.354 -214.217 660.447C-214.462 658.777 -214.732 657.084 -215.008 655.382C-215.61 651.552 -216.227 647.603 -216.647 643.686L-217.707 622.525V277.531L-216.647 256.402C-216.227 252.445 -215.61 248.488 -215.008 244.642C-214.747 242.949 -214.478 241.247 -214.217 239.546C-213.526 234.649 -212.503 229.806 -211.155 225.048L-209.865 219.999C-208.796 215.429 -207.427 210.935 -205.765 206.546C-199.126 186.145 -188.482 165.981 -174.158 146.664C-160.001 127.671 -143.746 111.693 -125.838 99.1818C-107.343 85.9735 -86.9384 75.6697 -65.3302 68.6273C-43.6321 61.9379 -21.0852 58.4013 1.61903 58.126C24.3314 58.3976 46.8866 61.9342 68.592 68.6273C90.2097 75.6645 110.623 85.9686 129.123 99.1818C147.024 111.662 163.271 127.623 177.396 146.664C191.728 165.973 202.38 186.145 209.051 206.617C210.714 211.004 212.075 215.498 213.126 220.07L214.448 225.198C215.79 229.932 216.808 234.752 217.495 239.625C217.74 241.287 218.009 242.988 218.286 244.69C218.88 248.512 219.505 252.469 219.916 256.394L220.977 277.547V622.47L219.924 643.615C219.505 647.572 218.88 651.529 218.286 655.375C218.017 657.076 217.748 658.769 217.495 660.471C216.805 665.335 215.787 670.147 214.448 674.874L213.126 680.002C212.065 684.573 210.695 689.068 209.027 693.455C202.396 713.856 191.752 734.028 177.42 753.337C163.263 772.33 147.008 788.307 129.107 800.819C110.615 814.03 90.2094 824.334 68.5999 831.373C46.8987 838.062 24.3495 841.598 1.64275 841.875H1.63483ZM1.63483 60.2152C-20.8569 60.4898 -43.1927 63.9917 -64.6892 70.6137C-86.093 77.5934 -106.305 87.8009 -124.627 100.883C-142.354 113.244 -158.442 129.056 -172.465 147.882C-186.662 167.009 -197.203 186.975 -203.795 207.234C-205.433 211.563 -206.779 215.997 -207.823 220.505L-209.144 225.539C-210.468 230.214 -211.475 234.973 -212.16 239.783C-212.413 241.516 -212.682 243.225 -212.951 244.927C-213.552 248.725 -214.162 252.659 -214.534 256.52L-215.586 277.555V622.47L-214.526 643.512C-214.122 647.318 -213.513 651.252 -212.943 655.05C-212.682 656.759 -212.413 658.461 -212.152 660.17C-211.464 664.981 -210.454 669.74 -209.129 674.415L-207.823 679.471C-206.786 683.967 -205.448 688.387 -203.819 692.703C-197.203 713.025 -186.662 732.991 -172.457 752.126C-158.442 770.945 -142.385 786.756 -124.635 799.11C-106.311 812.199 -86.0924 822.41 -64.6813 829.387C-43.1832 836.014 -20.8441 839.516 1.65067 839.786C24.1506 839.516 46.495 836.014 67.9985 829.387C89.4011 822.411 109.611 812.203 127.928 799.117C145.655 786.756 161.751 770.953 175.766 752.118C189.963 732.999 200.504 713.025 207.096 692.766C208.736 688.432 210.084 683.993 211.132 679.479L212.454 674.344C213.769 669.7 214.768 664.973 215.445 660.194C215.698 658.453 215.967 656.752 216.236 655.042C216.83 651.244 217.447 647.311 217.819 643.441L218.872 622.414V277.531L217.819 256.489C217.416 252.682 216.798 248.749 216.236 244.943C215.967 243.241 215.698 241.54 215.445 239.831C214.763 235.044 213.758 230.309 212.438 225.657L211.116 220.521C210.074 216.042 208.733 211.638 207.104 207.337C200.488 187.015 189.947 167.041 175.742 147.922C161.735 129.095 145.671 113.284 127.92 100.931C109.597 87.8398 89.3785 77.6292 67.9668 70.6532C46.465 64.0141 24.1208 60.4988 1.61903 60.2152H1.63483Z" fill="#586470"/>
<path d="M1.64879 870.934C-24.0659 870.667 -49.6058 866.669 -74.1716 859.064C-98.6634 851.101 -121.789 839.43 -142.743 824.457C-163.089 810.213 -181.52 792.162 -197.434 770.748C-213.578 749.001 -225.638 726.146 -233.267 702.825C-235.181 697.724 -236.767 692.506 -238.015 687.203L-239.281 682.313C-240.828 676.778 -242.023 671.151 -242.858 665.465C-243.088 663.882 -243.341 662.299 -243.586 660.756C-244.314 656.079 -245.066 651.26 -245.565 646.456L-246.76 622.517V277.531L-246.57 272.735L-245.573 253.608C-245.066 248.773 -244.314 243.93 -243.586 239.253C-243.341 237.67 -243.088 236.087 -242.85 234.505C-242.02 228.829 -240.828 223.212 -239.281 217.688L-238.015 212.79C-236.765 207.466 -235.179 202.228 -233.267 197.105C-225.646 173.862 -213.586 151.008 -197.474 129.269C-181.528 107.847 -163.129 89.7722 -142.783 75.5435C-121.828 60.5793 -98.7053 48.9114 -74.2191 40.9451C-49.6507 33.3395 -24.1081 29.3409 1.60924 29.0747C27.3295 29.3378 52.875 33.3364 77.4455 40.9451C101.95 48.906 125.089 60.5771 146.057 75.5514C166.395 89.796 184.794 107.847 200.74 129.261C216.883 151 228.936 173.847 236.58 197.176C238.488 202.311 240.074 207.56 241.329 212.892L242.547 217.641C244.106 223.203 245.309 228.86 246.148 234.576C246.385 236.158 246.639 237.741 246.884 239.363C247.612 244.017 248.364 248.86 248.862 253.608L250.049 277.539V622.47L249.86 627.266L248.855 646.393C248.356 651.141 247.612 655.953 246.892 660.574C246.639 662.21 246.388 663.845 246.14 665.481C245.298 671.184 244.09 676.828 242.524 682.376L241.305 687.124C240.058 692.48 238.472 697.75 236.557 702.904C228.952 726.17 216.891 749.017 200.748 770.755C184.802 792.178 166.402 810.244 146.049 824.481C125.096 839.45 101.973 851.118 77.485 859.079C52.919 866.684 27.3793 870.682 1.66464 870.95L1.64879 870.934ZM1.64879 31.1481C-23.8492 31.4237 -49.1725 35.3955 -73.5306 42.9394C-97.812 50.8381 -120.74 62.4102 -141.517 77.2529C-161.688 91.3629 -179.921 109.271 -195.733 130.512C-211.782 152.076 -223.731 174.725 -231.297 197.841C-233.183 202.902 -234.75 208.078 -235.989 213.336L-237.256 218.226C-238.778 223.686 -239.954 229.237 -240.777 234.845C-241.022 236.428 -241.268 238.01 -241.513 239.593C-242.241 244.246 -242.993 249.089 -243.484 253.79L-244.671 277.594V622.47L-244.473 627.218L-243.476 646.314C-242.993 650.991 -242.241 655.81 -241.513 660.455C-241.27 662.038 -241.028 663.621 -240.785 665.204C-239.959 670.812 -238.78 676.362 -237.256 681.822L-235.989 686.721C-234.754 691.956 -233.195 697.11 -231.32 702.152C-223.739 725.315 -211.782 747.964 -195.764 769.529C-179.937 790.769 -161.736 808.685 -141.548 822.78C-120.765 837.605 -97.8351 849.161 -73.5544 857.046C-49.1967 864.589 -23.8727 868.556 1.62506 868.821C27.1234 868.556 52.4479 864.587 76.8044 857.038C100.347 849.52 123.218 837.966 144.79 822.724C164.962 808.614 183.203 790.698 199.015 769.466C215.024 747.909 226.973 725.252 234.539 702.152C236.45 697.059 238.036 691.849 239.287 686.555L240.506 681.806C242.056 676.351 243.258 670.803 244.106 665.196C244.352 663.534 244.605 661.896 244.858 660.25C245.578 655.66 246.322 650.904 246.805 646.227L247.992 622.423V277.531L247.794 272.783L246.805 253.687C246.314 249.034 245.57 244.246 244.842 239.617C244.597 238.034 244.344 236.404 244.106 234.797C243.276 229.161 242.087 223.584 240.545 218.1L239.334 213.351C238.084 208.103 236.506 202.939 234.61 197.888C227.021 174.709 215.063 152.06 199.054 130.512C183.227 109.271 165.026 91.3549 144.846 77.2608C124.067 62.4109 101.133 50.8358 76.844 42.9394C52.4789 35.3909 27.1471 31.4191 1.64087 31.1481H1.64879Z" fill="#586470"/>
</g>
<defs>
<clipPath id="clip0_136_442">
<rect width="554.935" height="900" fill="white" transform="translate(-275.828)"/>
</clipPath>
</defs>
</svg>
