<svg width="251" height="702" viewBox="0 0 251 702" fill="none" xmlns="http://www.w3.org/2000/svg">
<g opacity="0.1" clip-path="url(#clip0_78_2734)">
<path d="M-666.661 350.62C-666.3 337.162 -664.199 323.808 -660.411 310.89C-656.162 298.135 -650.045 286.081 -642.261 275.12C-635.261 264.81 -625.761 255.12 -613.941 246.32C-601.661 237.26 -590.051 231.12 -578.451 227.56C-576.25 226.596 -573.949 225.878 -571.591 225.42C-570.681 225.21 -569.781 225.01 -568.881 224.77C-567.981 224.53 -567.271 224.33 -566.481 224.11C-564.019 223.332 -561.481 222.819 -558.911 222.58C-557.341 222.4 -555.711 222.12 -554.081 221.84C-552.451 221.56 -550.781 221.27 -549.081 221.08C-545.621 221.08 -542.251 220.88 -538.941 220.62L-536.391 220.41L-100.391 220.41L-97.7305 220.62C-94.4405 220.88 -91.0805 221.03 -87.7305 221.07C-85.9305 221.27 -84.2806 221.56 -82.6306 221.84C-80.9806 222.12 -79.3705 222.4 -77.7305 222.59C-75.1793 222.827 -72.6613 223.34 -70.2206 224.12C-69.4305 224.34 -68.6405 224.56 -67.8505 224.76C-67.0605 224.96 -66.0306 225.21 -65.1306 225.42C-62.7061 225.894 -60.3417 226.635 -58.0805 227.63C-46.6605 231.12 -35.0806 237.26 -22.7805 246.32C-10.9605 255.11 -1.43055 264.8 5.54945 275.13C13.3303 286.077 19.4436 298.118 23.6895 310.86C27.4821 323.788 29.583 337.152 29.9395 350.62C29.5857 364.104 27.4883 377.485 23.6995 390.43C19.4487 403.187 13.3324 415.245 5.54945 426.21C-1.45055 436.52 -10.9505 446.21 -22.7705 455C-35.0605 464.06 -46.6605 470.2 -58.2605 473.77C-60.4717 474.734 -62.7823 475.452 -65.1505 475.91C-66.0505 476.11 -66.9405 476.32 -67.8305 476.55C-68.7205 476.78 -69.4105 476.98 -70.1805 477.2C-72.657 477.989 -75.2121 478.505 -77.8005 478.74C-79.3605 478.92 -80.9805 479.2 -82.6005 479.48C-84.2205 479.76 -85.9205 480.05 -87.6005 480.24C-91.0905 480.3 -94.4605 480.45 -97.7405 480.7L-100.291 480.91L-536.291 480.91L-538.951 480.69C-542.241 480.44 -545.611 480.29 -548.951 480.24C-550.761 480.04 -552.421 479.75 -554.081 479.47C-555.741 479.19 -557.32 478.91 -558.961 478.72C-561.519 478.486 -564.044 477.973 -566.491 477.19C-567.271 476.97 -568.051 476.75 -568.841 476.55C-569.63 476.35 -570.63 476.1 -571.531 475.9C-573.961 475.425 -576.332 474.684 -578.601 473.69C-590.01 470.19 -601.601 464.06 -613.911 454.99C-625.721 446.2 -635.251 436.51 -642.231 426.18C-650.014 415.231 -656.127 403.186 -660.371 390.44C-664.167 377.516 -666.272 364.155 -666.631 350.69L-666.661 350.62ZM27.2595 350.62C26.9023 337.41 24.8386 324.301 21.1195 311.62C16.9494 299.139 10.9544 287.345 3.32947 276.62C-3.50053 266.52 -12.8205 257.04 -24.4005 248.43C-36.4005 239.56 -47.7705 233.56 -59.0805 230.08C-61.2197 229.15 -63.4525 228.453 -65.7405 228C-66.6805 227.79 -67.6105 227.57 -68.5305 227.32C-69.4505 227.07 -70.1405 226.89 -70.9505 226.67C-73.2243 225.936 -75.5716 225.453 -77.9505 225.23C-79.7205 225.03 -81.4005 224.74 -83.0805 224.45C-84.7605 224.16 -86.2805 223.89 -87.9005 223.7C-91.1705 223.7 -94.5905 223.52 -97.9005 223.26L-100.461 223.05L-536.321 223.05L-538.771 223.26C-542.151 223.52 -545.571 223.67 -548.951 223.71C-550.431 223.89 -552.031 224.17 -553.631 224.45C-555.231 224.73 -556.991 225.03 -558.691 225.22C-561.096 225.438 -563.471 225.921 -565.771 226.66C-566.581 226.89 -567.401 227.12 -568.221 227.33C-569.041 227.54 -570.061 227.79 -570.991 228C-573.223 228.429 -575.403 229.1 -577.491 230C-588.991 233.54 -600.331 239.55 -612.371 248.43C-623.951 257.04 -633.271 266.52 -640.081 276.6C-647.718 287.342 -653.72 299.157 -657.891 311.66C-661.602 324.342 -663.662 337.451 -664.021 350.66C-663.661 363.87 -661.597 376.978 -657.881 389.66C-653.713 402.142 -647.717 413.937 -640.091 424.66C-633.271 434.76 -623.941 444.24 -612.361 452.84C-600.361 461.73 -588.981 467.73 -577.671 471.2C-575.523 472.146 -573.275 472.847 -570.971 473.29C-570.041 473.51 -569.121 473.72 -568.201 473.97C-567.281 474.22 -566.611 474.4 -565.811 474.62C-563.536 475.353 -561.189 475.836 -558.811 476.06C-557.041 476.26 -555.371 476.55 -553.701 476.84C-552.031 477.13 -550.481 477.39 -548.851 477.59C-545.581 477.59 -542.161 477.78 -538.851 478.03L-536.291 478.24L-100.441 478.24L-97.9905 478.03C-94.6405 477.78 -91.2206 477.62 -87.8105 477.58C-86.3205 477.39 -84.7105 477.12 -83.1005 476.84C-81.4905 476.56 -79.7605 476.26 -78.1005 476.07C-75.6813 475.848 -73.2937 475.362 -70.9805 474.62C-70.1805 474.387 -69.3805 474.167 -68.5805 473.96C-67.6805 473.72 -66.7505 473.51 -65.8305 473.29C-63.5869 472.866 -61.3969 472.195 -59.3005 471.29C-47.8105 467.74 -36.4605 461.74 -24.4205 452.85C-12.8505 444.24 -3.52054 434.76 3.28946 424.69C10.9289 413.946 16.931 402.127 21.0995 389.62C24.8282 376.927 26.8987 363.805 27.2595 350.58V350.62Z" fill="#9381FF"/>
<path d="M-887.02 350.62C-886.679 314.327 -881.033 278.279 -870.26 243.62C-859.03 209.033 -842.554 176.376 -821.41 146.79C-801.23 118 -775.74 92 -745.63 69.6C-715.08 46.91 -682.82 29.88 -649.74 19C-642.294 16.261 -634.69 13.9702 -626.97 12.14L-621.59 10.74C-613.501 8.491 -605.283 6.73774 -596.98 5.49L-591.65 4.66C-584.65 3.56 -577.32 2.42 -570.12 1.66C-561.12 1.08 -551.99 0.6 -543.12 0.24L-536.37 0L-100.44 0L-93.7402 0.25C-84.8302 0.61 -75.7402 1.09 -66.7402 1.67C-59.4802 2.42 -52.1902 3.56 -45.1502 4.67L-39.7402 5.49C-31.4405 6.73937 -23.2251 8.49599 -15.1402 10.75L-9.74023 12.14C-2.0155 13.9652 5.59172 16.256 13.0398 19C46.0398 29.85 78.3198 46.88 108.86 69.56C138.97 92 164.47 118 184.65 146.76C205.794 176.34 222.267 208.995 233.49 243.58C244.271 278.248 249.921 314.306 250.26 350.61C249.919 386.903 244.272 422.951 233.5 457.61C222.269 492.2 205.794 524.861 184.65 554.45C164.47 583.23 138.97 609.19 108.86 631.61C78.3298 654.3 46.0598 671.32 12.9698 682.2C5.50591 684.953 -2.1181 687.25 -9.86023 689.08L-15.2602 690.48C-23.3075 692.727 -31.4821 694.49 -39.7402 695.76L-45.3302 696.62C-52.3302 697.71 -59.4902 698.83 -66.6002 699.62C-75.7402 700.15 -84.7402 700.63 -93.7402 701L-100.44 701.25H-536.32L-543.07 701C-551.98 700.64 -561.07 700.16 -570.07 699.58C-577.33 698.83 -584.62 697.7 -591.67 696.58L-597.01 695.75C-605.37 694.67 -613.66 692.53 -621.68 690.48L-626.91 689.12C-634.676 687.283 -642.323 684.979 -649.81 682.22C-682.81 671.36 -715.09 654.34 -745.63 631.65C-775.75 609.23 -801.24 583.26 -821.42 554.48C-842.564 524.898 -859.04 492.244 -870.27 457.66C-881.042 423.001 -886.689 386.953 -887.03 350.66L-887.02 350.62ZM247.62 350.62C247.289 314.581 241.683 278.785 230.98 244.37C219.834 210.047 203.483 177.64 182.5 148.28C162.47 119.72 137.17 94 107.26 71.71C76.9498 49.19 44.9398 32.3 12.1198 21.51C4.73253 18.7881 -2.81096 16.5107 -10.4702 14.69L-15.8402 13.31C-23.7702 11.31 -31.9602 9.16 -40.1602 8.1L-45.5402 7.27C-52.5402 6.17 -59.8102 5.04 -66.9502 4.27C-75.8802 3.69 -84.9502 3.21 -93.8202 2.86L-100.52 2.61L-536.32 2.61L-542.97 2.86C-551.86 3.21 -560.92 3.69 -569.9 4.27C-576.98 5.01 -584.24 6.14 -591.25 7.27L-596.61 8.1C-604.83 9.16 -613.02 11.27 -620.94 13.3L-626.31 14.69C-633.95 16.4987 -641.473 18.7662 -648.84 21.48C-681.74 32.3 -713.74 49.19 -744.05 71.71C-773.93 93.96 -799.23 119.71 -819.25 148.28C-840.243 177.643 -856.597 210.058 -867.74 244.39C-878.44 278.798 -884.046 314.588 -884.38 350.62C-884.046 386.659 -878.439 422.454 -867.74 456.87C-856.602 491.208 -840.251 523.63 -819.26 553C-799.26 581.56 -773.93 607.32 -744.05 629.58C-713.74 652.09 -681.73 668.98 -648.91 679.78C-641.495 682.502 -633.925 684.783 -626.24 686.61L-621.01 687.96C-613 690.191 -604.862 691.934 -596.64 693.18L-591.25 694.02C-584.25 695.11 -576.98 696.25 -569.84 697.02C-560.92 697.6 -551.84 698.02 -542.96 698.44L-536.27 698.68H-100.44L-93.7902 698.44C-84.9102 698.07 -75.8503 697.6 -66.8702 697.02C-59.8702 696.3 -52.7102 695.18 -45.7802 694.1L-40.1502 693.23C-31.9751 691.979 -23.8835 690.233 -15.9202 688L-10.5202 686.61C-2.85858 684.79 4.68808 682.516 12.0798 679.8C44.9698 668.98 76.9798 652.09 107.29 629.57C137.17 607.32 162.47 581.57 182.5 553.01C203.99 522.59 220.26 490.25 230.98 456.86C241.684 422.446 247.29 386.649 247.62 350.61V350.62Z" fill="#9381FF"/>
<path d="M-703.38 350.62C-703.03 333.353 -700.338 316.213 -695.38 299.67C-689.976 283.255 -682.132 267.748 -672.11 253.67C-662.95 240.29 -650.76 227.89 -635.89 216.83C-620.74 205.59 -605.37 197.5 -590.34 192.77C-587.361 191.54 -584.274 190.589 -581.12 189.93C-580.12 189.68 -579.04 189.43 -578 189.15L-575.3 188.43C-572.037 187.438 -568.689 186.748 -565.3 186.37C-563.47 186.13 -561.58 185.82 -559.7 185.51C-557.36 185.12 -555.01 184.74 -552.64 184.51C-548.24 184.37 -543.96 184.16 -539.64 183.89L-536.39 183.68L-100.39 183.68L-97.0598 183.9C-92.7798 184.167 -88.4931 184.37 -84.1998 184.51C-81.7298 184.78 -79.3898 185.16 -77.0498 185.51C-75.1598 185.82 -73.2698 186.13 -71.3798 186.38C-67.9903 186.753 -64.6427 187.439 -61.3798 188.43L-58.6798 189.15C-57.6798 189.43 -56.5898 189.68 -55.5398 189.93C-52.3411 190.604 -49.2112 191.572 -46.1898 192.82C-31.2998 197.5 -15.9798 205.59 -0.78981 216.82C14.0902 227.89 26.2802 240.29 35.4502 253.68C45.4604 267.737 53.2982 283.22 58.7002 299.61C63.6615 316.17 66.3527 333.326 66.7002 350.61C66.3503 367.893 63.6592 385.05 58.7002 401.61C53.2945 418.006 45.4535 433.496 35.4402 447.56C26.2702 460.95 14.0802 473.36 -0.78981 484.42C-15.9898 495.66 -31.3098 503.75 -46.3498 508.49C-49.3079 509.706 -52.3706 510.649 -55.4998 511.31C-56.5598 511.57 -57.6198 511.82 -58.6698 512.1C-59.7198 512.38 -60.5298 512.59 -61.4498 512.84C-64.7128 513.82 -68.0609 514.49 -71.4498 514.84C-73.3198 515.09 -75.2298 515.4 -77.1498 515.71C-79.4598 516.1 -81.7698 516.47 -84.1498 516.71C-88.5498 516.86 -92.8298 517.06 -97.1498 517.33L-100.39 517.55H-536.39L-539.73 517.33C-544.003 517.063 -548.286 516.863 -552.58 516.73C-555.02 516.45 -557.34 516.08 -559.65 515.73C-561.57 515.42 -563.48 515.11 -565.4 514.86C-568.756 514.49 -572.073 513.821 -575.31 512.86C-576.22 512.61 -577.14 512.36 -578.06 512.13C-579.13 511.84 -580.19 511.59 -581.25 511.33C-584.43 510.654 -587.542 509.694 -590.55 508.46C-605.45 503.77 -620.78 495.67 -635.95 484.46C-650.83 473.4 -663.02 460.99 -672.19 447.6C-682.199 433.541 -690.04 418.058 -695.45 401.67C-700.41 385.11 -703.102 367.953 -703.45 350.67L-703.38 350.62ZM63.9802 350.62C63.626 333.611 60.9754 316.729 56.1002 300.43C50.7693 284.301 43.0466 269.065 33.1902 255.23C24.1902 242.06 12.1902 229.87 -2.44981 218.98C-17.4498 207.92 -32.4498 199.98 -47.2198 195.31C-50.1289 194.109 -53.1413 193.175 -56.2198 192.52C-57.2898 192.27 -58.3498 192.01 -59.3998 191.73C-60.2998 191.5 -61.2198 191.25 -62.1298 191.01C-65.2396 190.044 -68.4338 189.374 -71.6698 189.01C-73.6698 188.75 -75.5798 188.44 -77.4898 188.12C-79.7898 187.75 -82.0898 187.37 -84.4098 187.12C-88.6298 186.99 -92.9398 186.79 -97.2498 186.51L-100.5 186.29L-536.32 186.29L-539.48 186.5C-543.786 186.78 -548.1 186.987 -552.42 187.12C-554.64 187.37 -556.94 187.75 -559.24 188.12C-561.16 188.43 -563.07 188.74 -565 188.99C-568.258 189.359 -571.475 190.029 -574.61 190.99C-575.52 191.23 -576.43 191.48 -577.34 191.71C-578.25 191.94 -579.44 192.24 -580.5 192.5C-583.544 193.138 -586.524 194.055 -589.4 195.24C-604.3 199.94 -619.4 207.9 -634.31 218.97C-648.95 229.85 -660.94 242.04 -669.95 255.2C-679.811 269.046 -687.534 284.297 -692.86 300.44C-697.735 316.735 -700.385 333.615 -700.74 350.62C-700.381 367.639 -697.727 384.531 -692.85 400.84C-687.517 416.971 -679.794 432.21 -669.94 446.05C-660.94 459.21 -648.94 471.4 -634.3 482.29C-619.36 493.35 -604.3 501.29 -589.53 505.96C-586.623 507.162 -583.61 508.089 -580.53 508.73C-579.45 509 -578.37 509.26 -577.3 509.55C-576.23 509.84 -575.45 510.03 -574.52 510.28C-571.423 511.231 -568.247 511.9 -565.03 512.28C-563.03 512.53 -561.03 512.85 -559.12 513.17C-556.85 513.54 -554.58 513.92 -552.29 514.17C-548.07 514.29 -543.76 514.49 -539.45 514.78L-536.2 514.99H-100.44L-97.2798 514.78C-92.9731 514.493 -88.6398 514.287 -84.2798 514.16C-82.0998 513.91 -79.8298 513.53 -77.5598 513.16C-75.6198 512.84 -73.6698 512.52 -71.7098 512.27C-68.4747 511.9 -65.2809 511.231 -62.1698 510.27C-61.2398 510.02 -60.2998 509.77 -59.3698 509.53C-58.4398 509.29 -57.2298 508.99 -56.1498 508.72C-53.1245 508.092 -50.1649 507.181 -47.3098 506C-32.4098 501.3 -17.3098 493.34 -2.3898 482.28C12.2402 471.39 24.2302 459.2 33.2402 446.04C43.0991 432.196 50.822 416.949 56.1502 400.81C61.0138 384.5 63.6477 367.607 63.9802 350.59V350.62Z" fill="#9381FF"/>
<path d="M-740.11 350.62C-739.76 329.545 -736.479 308.621 -730.36 288.45C-723.782 268.415 -714.21 249.491 -701.97 232.32C-690.61 215.85 -675.76 200.74 -657.84 187.41C-639.57 173.88 -620.84 163.99 -602.22 158.03C-598.432 156.53 -594.529 155.337 -590.55 154.46C-589.41 154.18 -588.27 153.9 -587.13 153.59L-584.19 152.83C-580.078 151.62 -575.874 150.743 -571.62 150.21C-569.62 149.93 -567.5 149.6 -565.41 149.27C-562.41 148.78 -559.24 148.27 -556.11 147.93L-536.39 146.93L-100.44 146.93L-80.7304 147.93C-77.5204 148.28 -74.3804 148.78 -71.3504 149.27C-69.2604 149.6 -67.1804 149.93 -65.0904 150.21C-60.8572 150.748 -56.6739 151.625 -52.5804 152.83L-49.6404 153.59C-48.4904 153.9 -47.3404 154.18 -46.2004 154.46C-42.1838 155.352 -38.2447 156.562 -34.4204 158.08C-15.9004 163.99 2.80961 173.87 21.0696 187.4C38.9996 200.75 53.8496 215.86 65.2196 232.33C77.4507 249.493 87.0155 268.407 93.5896 288.43C99.7137 308.606 102.999 329.537 103.35 350.62C103.004 371.713 99.719 392.654 93.5896 412.84C87.019 432.873 77.4503 451.794 65.2096 468.96C53.8396 485.43 38.9896 500.55 21.0696 513.87C2.81961 527.41 -15.9304 537.29 -34.5404 543.25C-38.3009 544.746 -42.1771 545.933 -46.1304 546.8C-47.3004 547.09 -48.4704 547.38 -49.6304 547.69L-52.5304 548.45C-56.6578 549.656 -60.8743 550.532 -65.1404 551.07C-67.1404 551.35 -69.2504 551.68 -71.3304 552.01C-74.3304 552.5 -77.5204 553.01 -80.6504 553.35L-100.37 554.35H-536.37L-556.08 553.35C-559.29 553.01 -562.44 552.5 -565.48 552.01C-567.56 551.68 -569.64 551.35 -571.72 551.01C-575.97 550.475 -580.17 549.602 -584.28 548.4L-587.17 547.64C-588.34 547.33 -589.51 547.04 -590.67 546.75C-594.669 545.874 -598.589 544.67 -602.39 543.15C-620.91 537.24 -639.62 527.36 -657.88 513.83C-675.8 500.5 -690.65 485.39 -702.03 468.9C-714.266 451.74 -723.831 432.825 -730.4 412.8C-736.525 392.627 -739.81 371.699 -740.16 350.62H-740.11ZM100.71 350.62C100.361 329.805 97.1167 309.14 91.0696 289.22C84.5881 269.451 75.1475 250.779 63.0696 233.84C51.8696 217.6 37.2096 202.69 19.5196 189.52C1.51961 176.17 -16.9604 166.42 -35.3304 160.52C-39.0672 159.042 -42.9162 157.865 -46.8404 157C-47.9904 156.72 -49.1504 156.43 -50.3004 156.13L-53.2504 155.35C-57.2256 154.181 -61.2888 153.334 -65.4004 152.82C-67.5604 152.52 -69.6604 152.19 -71.7604 151.82C-74.7604 151.34 -77.8704 150.82 -80.9304 150.5L-100.52 149.5L-536.32 149.5L-555.9 150.5C-558.9 150.83 -561.99 151.33 -565 151.81C-567.1 152.14 -569.2 152.48 -571.32 152.81C-575.449 153.328 -579.529 154.181 -583.52 155.36L-586.52 156.13C-587.66 156.43 -588.81 156.72 -589.97 157C-593.846 157.859 -597.648 159.022 -601.34 160.48C-619.83 166.4 -638.34 176.15 -656.34 189.48C-674.03 202.63 -688.68 217.54 -699.89 233.78C-711.966 250.731 -721.407 269.413 -727.89 289.19C-733.93 309.112 -737.171 329.776 -737.52 350.59C-737.154 371.41 -733.893 392.078 -727.83 412C-721.351 431.773 -711.91 450.448 -699.83 467.39C-688.61 483.64 -673.96 498.55 -656.28 511.7C-638.28 525.05 -619.8 534.8 -601.43 540.7C-597.724 542.17 -593.905 543.341 -590.01 544.2C-588.83 544.49 -587.65 544.79 -586.48 545.1L-583.58 545.86C-579.589 547.033 -575.509 547.882 -571.38 548.4C-569.23 548.7 -567.13 549.03 -565.03 549.4C-562.03 549.88 -558.91 550.4 -555.85 550.71L-536.26 551.71H-100.44L-80.8604 550.71C-77.8604 550.39 -74.7504 549.89 -71.7504 549.41C-69.6504 549.07 -67.5504 548.74 -65.4404 548.41C-61.2989 547.888 -57.2058 547.035 -53.2004 545.86L-50.2904 545.1C-49.1304 544.79 -47.9504 544.49 -46.7704 544.2C-42.9135 543.353 -39.1312 542.195 -35.4604 540.74C-16.9704 534.82 1.47961 525.07 19.5396 511.74C37.2196 498.58 51.8796 483.67 63.0896 467.44C75.1638 450.488 84.6039 431.806 91.0896 412.03C97.1305 392.099 100.368 371.424 100.71 350.6V350.62Z" fill="#9381FF"/>
<path d="M-776.84 350.62C-776.491 325.736 -772.616 301.026 -765.33 277.23C-757.594 253.56 -746.298 231.207 -731.83 210.94C-718.26 191.38 -700.74 173.56 -679.78 157.94C-658.44 142.11 -636.34 130.45 -614.1 123.26C-609.47 121.476 -604.718 120.029 -599.88 118.93L-596.26 118L-593.32 117.23C-588.287 115.786 -583.157 114.707 -577.97 114C-575.85 113.69 -573.7 113.35 -571.54 113C-567.64 112.39 -563.61 111.75 -559.61 111.33L-541.01 110.33C-525.01 110.04 -508.76 110.07 -493.06 110.1C-484.29 110.1 -475.53 110.1 -466.77 110.1L-170 110.1C-161.23 110.1 -152.47 110.1 -143.7 110.1C-128 110.1 -111.76 110.04 -95.7899 110.33L-77.2199 111.27C-73.1499 111.7 -69.1199 112.34 -65.2199 112.95C-63.0699 113.29 -60.9099 113.63 -58.7499 113.95C-53.5847 114.644 -48.4776 115.717 -43.4699 117.16L-40.4699 117.93C-39.2599 118.24 -38.0499 118.55 -36.8499 118.85C-31.9724 119.957 -27.1828 121.421 -22.5199 123.23C-0.379883 130.38 21.7201 142.04 43.0601 157.86C64.0601 173.47 81.5401 191.3 95.1201 210.86C109.581 231.126 120.874 253.476 128.61 277.14C135.895 300.94 139.771 325.652 140.12 350.54C139.764 375.45 135.876 400.183 128.57 424C120.832 447.669 109.536 470.022 95.0701 490.29C81.5101 509.84 64.0001 527.66 43.0201 543.29C21.7001 559.11 -0.399902 570.78 -22.6599 577.98C-27.3048 579.772 -32.0741 581.222 -36.9299 582.32C-38.1199 582.62 -39.3099 582.92 -40.4999 583.23L-43.3799 583.98C-48.4314 585.432 -53.5816 586.514 -58.7899 587.22C-60.9099 587.52 -63.0699 587.86 -65.2299 588.22C-69.1199 588.84 -73.1499 589.47 -77.1499 589.9L-95.7399 590.84C-111.74 591.14 -127.94 591.1 -143.61 591.07C-152.41 591.07 -161.2 591.07 -169.99 591.07H-466.74C-475.54 591.07 -484.33 591.07 -493.13 591.07C-508.8 591.07 -525.01 591.14 -540.95 590.84L-559.52 589.9C-563.59 589.47 -567.62 588.84 -571.52 588.22C-573.68 587.88 -575.84 587.54 -578 587.22C-583.198 586.522 -588.338 585.446 -593.38 584L-596.25 583.25C-597.44 582.94 -598.64 582.64 -599.83 582.34C-604.722 581.233 -609.525 579.766 -614.2 577.95C-636.36 570.8 -658.45 559.13 -679.78 543.32C-700.78 527.71 -718.27 509.88 -731.84 490.32C-746.306 470.042 -757.599 447.679 -765.33 424C-772.615 400.2 -776.49 375.488 -776.84 350.6V350.62ZM137.44 350.62C137.096 325.997 133.261 301.546 126.05 278C118.4 254.586 107.225 232.476 92.9101 212.43C79.5001 193.11 62.1901 175.49 41.4501 160.05C20.3401 144.4 -1.49989 132.87 -23.4699 125.77C-28.0485 124.007 -32.7471 122.574 -37.5299 121.48L-41.1699 120.55L-44.1699 119.78C-49.0704 118.372 -54.0669 117.322 -59.1199 116.64C-61.3399 116.32 -63.5099 115.98 -65.6799 115.64C-69.5399 115.03 -73.5299 114.4 -77.4699 113.98L-95.9199 113.05C-111.82 112.76 -128.05 112.79 -143.74 112.82C-152.513 112.82 -161.28 112.82 -170.04 112.82L-466.74 112.82C-475.5 112.82 -484.267 112.82 -493.04 112.82C-508.73 112.82 -524.96 112.76 -540.9 113.05L-559.38 113.99C-563.25 114.4 -567.24 114.99 -571.11 115.64C-573.28 115.98 -575.45 116.32 -577.62 116.64C-582.689 117.334 -587.702 118.39 -592.62 119.8L-595.62 120.56C-596.82 120.88 -598.04 121.18 -599.26 121.49C-604.022 122.572 -608.7 123.993 -613.26 125.74C-635.33 132.88 -657.17 144.41 -678.26 160.07C-698.99 175.49 -716.26 193.07 -729.72 212.43C-744.012 232.482 -755.169 254.592 -762.81 278C-770.017 301.544 -773.852 325.99 -774.2 350.61C-773.85 375.236 -770.016 399.689 -762.81 423.24C-755.162 446.652 -743.986 468.759 -729.67 488.8C-716.26 508.12 -698.95 525.74 -678.21 541.18C-657.11 556.82 -635.27 568.36 -613.29 575.46C-608.696 577.232 -603.981 578.669 -599.18 579.76L-595.59 580.68L-592.71 581.43C-587.793 582.848 -582.78 583.907 -577.71 584.6C-575.49 584.91 -573.32 585.25 -571.15 585.6C-567.29 586.21 -563.29 586.83 -559.36 587.25L-540.91 588.18C-525.04 588.48 -508.84 588.45 -493.18 588.41C-484.38 588.41 -475.59 588.41 -466.79 588.41H-170C-161.2 588.41 -152.41 588.41 -143.61 588.41C-127.95 588.41 -111.75 588.48 -95.8299 588.18L-77.3599 587.25C-73.4999 586.83 -69.4999 586.25 -65.6399 585.6C-63.4699 585.25 -61.2999 584.91 -59.1199 584.6C-54.0259 583.913 -48.9891 582.853 -44.0499 581.43L-41.1599 580.68C-39.9699 580.37 -38.7799 580.07 -37.5799 579.76C-32.8171 578.678 -28.1383 577.254 -23.5799 575.5C-1.49988 568.36 20.3501 556.82 41.4201 541.18C62.1601 525.74 79.4701 508.12 92.8801 488.8C107.191 468.752 118.366 446.642 126.02 423.23C133.241 399.682 137.086 375.228 137.44 350.6V350.62Z" fill="#9381FF"/>
<path d="M-813.57 350.62C-813.223 321.924 -808.757 293.427 -800.31 266C-791.425 238.694 -778.418 212.906 -761.74 189.53C-745.97 166.91 -725.8 146.37 -701.74 128.53C-677.33 110.42 -651.85 96.97 -625.99 88.53C-620.465 86.4363 -614.806 84.7158 -609.05 83.38L-602.67 81.74C-596.645 80.0338 -590.511 78.7375 -584.31 77.86C-582.2 77.55 -580.06 77.21 -577.91 76.86C-573.07 76.1 -568.08 75.32 -563.13 74.79L-536.39 73.45L-100.44 73.45L-73.7404 74.79C-68.7404 75.32 -63.7404 76.1 -58.8804 76.86C-56.7404 77.19 -54.5904 77.53 -52.4404 77.86C-46.2532 78.7335 -40.1324 80.0264 -34.1204 81.73L-27.7404 83.36C-21.9657 84.7097 -16.2866 86.4402 -10.7404 88.54C15.0396 96.93 40.5196 110.38 64.9296 128.48C88.9296 146.37 109.12 166.91 124.93 189.54C141.62 212.91 154.641 238.695 163.54 266C171.993 293.419 176.462 321.91 176.81 350.6C176.466 379.3 171.997 407.802 163.54 435.23C154.647 462.547 141.626 488.342 124.93 511.72C109.16 534.34 88.9896 554.87 64.9296 572.72C40.5296 590.83 15.0396 604.29 -10.8304 612.72C-16.3734 614.821 -22.0532 616.542 -27.8304 617.87L-34.3104 619.54C-40.2926 621.236 -46.3833 622.522 -52.5404 623.39C-54.6404 623.7 -56.7905 624.04 -58.9404 624.39C-63.7704 625.14 -68.7704 625.93 -73.7304 626.45L-100.46 627.79H-536.32L-563.04 626.46C-568.04 625.93 -573.04 625.14 -577.9 624.39C-580.05 624.05 -582.19 623.71 -584.34 623.39C-590.487 622.518 -596.567 621.232 -602.54 619.54L-609.02 617.87C-614.797 616.528 -620.477 614.798 -626.02 612.69C-651.8 604.31 -677.29 590.86 -701.69 572.75C-725.69 554.86 -745.88 534.32 -761.69 511.7C-778.385 488.332 -791.406 462.547 -800.3 435.24C-808.752 407.817 -813.221 379.323 -813.57 350.63V350.62ZM174.17 350.62C173.823 322.198 169.397 293.974 161.03 266.81C152.21 239.763 139.311 214.222 122.78 191.07C107.16 168.67 87.1796 148.34 63.3896 130.62C39.2196 112.68 13.9896 99.36 -11.6104 91.03C-17.0801 88.9596 -22.6828 87.2591 -28.3804 85.94L-34.7404 84.27C-40.6482 82.5977 -46.6618 81.3248 -52.7404 80.46C-54.9304 80.14 -57.0904 79.8 -59.2404 79.46C-64.0404 78.7 -69.0104 77.93 -73.8904 77.46L-100.47 76.13L-536.32 76.13L-562.91 77.47C-567.72 77.98 -572.69 78.75 -577.49 79.47C-579.65 79.8 -581.8 80.14 -583.96 80.47C-590.039 81.3392 -596.053 82.6154 -601.96 84.29L-608.35 85.94C-614.031 87.25 -619.617 88.9405 -625.07 91C-650.75 99.36 -675.98 112.68 -700.16 130.63C-723.94 148.34 -743.92 168.63 -759.53 191.06C-776.071 214.215 -788.973 239.764 -797.79 266.82C-806.165 293.986 -810.59 322.215 -810.93 350.64C-810.59 379.072 -806.165 407.307 -797.79 434.48C-788.975 461.525 -776.076 487.064 -759.54 510.21C-743.92 532.61 -723.95 552.95 -700.15 570.66C-675.99 588.6 -650.75 601.92 -625.15 610.25C-619.674 612.322 -614.064 614.026 -608.36 615.35L-601.87 617.02C-596.002 618.682 -590.029 619.945 -583.99 620.8C-581.79 621.12 -579.64 621.46 -577.48 621.8C-572.68 622.55 -567.71 623.33 -562.82 623.8L-536.25 625.13H-100.44L-73.8504 623.8C-69.0404 623.29 -64.0704 622.51 -59.2604 621.8C-57.1104 621.46 -54.9604 621.12 -52.8004 620.8C-46.7516 619.938 -40.768 618.669 -34.8904 617L-28.4004 615.33C-22.7404 614.013 -17.1747 612.319 -11.7404 610.26C13.9396 601.9 39.1796 588.58 63.3396 570.63C87.1296 552.93 107.11 532.63 122.72 510.2C139.262 487.046 152.164 461.497 160.98 434.44C169.369 407.269 173.811 379.034 174.17 350.6V350.62Z" fill="#9381FF"/>
<path d="M-850.291 350.62C-849.953 318.126 -844.901 285.852 -835.291 254.81C-825.229 223.861 -810.481 194.638 -791.56 168.16C-773.56 142.45 -750.75 119.16 -723.69 99.05C-696.211 78.65 -667.33 63.41 -637.86 53.77C-631.415 51.3517 -624.822 49.3476 -618.12 47.77L-611.94 46.17C-604.946 44.2151 -597.835 42.7054 -590.65 41.65C-588.65 41.36 -586.651 41.04 -584.701 40.73C-578.791 39.81 -572.701 38.86 -566.63 38.23L-536.38 36.72L-100.44 36.72L-94.3805 36.96L-70.2105 38.22C-64.1005 38.86 -57.9805 39.81 -52.0705 40.73C-50.0705 41.04 -48.0705 41.36 -46.0705 41.66C-38.8983 42.7092 -31.8005 44.2156 -24.8204 46.17L-18.6305 47.77C-11.9038 49.3496 -5.28387 51.3537 1.18953 53.77C30.5595 63.4 59.4395 78.64 86.9095 99C113.98 119.15 136.82 142.4 154.8 168.11C173.709 194.59 188.453 223.808 198.52 254.75C208.13 285.796 213.183 318.072 213.52 350.57C213.187 383.071 208.134 415.352 198.52 446.4C188.46 477.365 173.712 506.605 154.79 533.1C136.79 558.8 113.98 582.05 86.9195 602.2C59.4495 622.6 30.5795 637.83 1.09953 647.49C-5.38925 649.901 -12.0221 651.905 -18.7605 653.49L-24.7605 655.03C-31.7899 657 -38.9378 658.519 -46.1605 659.58C-48.1605 659.88 -50.1605 660.2 -52.2105 660.51C-58.0905 661.43 -64.2105 662.38 -70.2105 663.01L-100.45 664.51H-536.32L-542.38 664.27L-566.55 663C-572.55 662.37 -578.63 661.43 -584.47 660.52C-586.537 660.2 -588.604 659.883 -590.67 659.57C-597.878 658.506 -605.009 656.979 -612.021 655L-618.021 653.46C-624.788 651.885 -631.448 649.881 -637.96 647.46C-667.36 637.85 -696.231 622.61 -723.701 602.21C-750.771 582.06 -773.6 558.81 -791.59 533.09C-810.506 506.614 -825.25 477.394 -835.31 446.45C-844.92 415.407 -849.973 383.134 -850.31 350.64L-850.291 350.62ZM210.9 350.62C210.551 318.4 205.532 286.4 196 255.62C186.018 224.937 171.395 195.964 152.64 169.71C134.81 144.22 112.18 121.18 85.3395 101.2C58.0895 80.92 29.4695 65.82 0.259537 56.26C-6.13681 53.8761 -12.6763 51.8956 -19.3204 50.33L-25.5005 48.73C-32.3997 46.8057 -39.4137 45.3194 -46.5005 44.28C-48.5005 43.97 -50.5005 43.66 -52.5005 43.35C-58.3805 42.43 -64.5005 41.48 -70.4405 40.86L-100.52 39.36L-536.32 39.36L-542.32 39.61L-566.451 40.87C-572.36 41.48 -578.451 42.43 -584.32 43.35C-586.32 43.6566 -588.32 43.9633 -590.32 44.27C-597.407 45.3138 -604.421 46.8035 -611.32 48.73L-617.51 50.33C-624.126 51.891 -630.639 53.8614 -637.01 56.23C-666.281 65.81 -694.9 80.92 -722.15 101.16C-748.99 121.16 -771.63 144.16 -789.44 169.67C-808.175 195.932 -822.777 224.908 -832.74 255.59C-842.273 286.369 -847.285 318.37 -847.62 350.59C-847.286 382.811 -842.27 414.812 -832.73 445.59C-823.23 475.34 -808.63 504.24 -789.37 531.5C-771.54 556.99 -748.901 580.04 -722.07 600.02C-694.831 620.25 -666.201 635.35 -637.01 644.91C-630.574 647.325 -623.991 649.329 -617.3 650.91L-611.3 652.45C-604.407 654.409 -597.396 655.929 -590.31 657C-588.211 657.31 -586.141 657.63 -584.06 657.95C-578.26 658.86 -572.25 659.8 -566.34 660.41L-536.26 661.91H-100.44L-94.4405 661.66L-70.3105 660.41C-64.4305 659.79 -58.3805 658.85 -52.5305 657.93C-50.5305 657.62 -48.4705 657.3 -46.4405 657C-39.3185 655.951 -32.2708 654.448 -25.3405 652.5L-19.3405 650.97C-12.7088 649.39 -6.18268 647.396 0.199539 645C29.4895 635.41 58.1095 620.3 85.3395 600.07C112.18 580.07 134.82 557.07 152.63 531.57C171.395 505.312 186.021 476.332 196 445.64C205.538 414.851 210.557 382.841 210.9 350.61V350.62Z" fill="#9381FF"/>
</g>
<defs>
<clipPath id="clip0_78_2734">
<rect width="701.24" height="1137.28" fill="white" transform="matrix(0 1 -1 0 250.26 0)"/>
</clipPath>
</defs>
</svg>
