<svg width="40" height="40" viewBox="0 0 40 40" fill="none" xmlns="http://www.w3.org/2000/svg">
<g clip-path="url(#clip0_78_2469)">
<path d="M21.3927 0.0458444C15.606 -0.337489 9.9327 1.77584 5.8477 5.86751C1.76103 9.96084 -0.352298 15.6292 0.0493681 21.4225C0.782701 32.0125 10.136 39.9992 21.8044 39.9992H31.666C36.261 39.9992 39.9994 36.2608 39.9994 31.6658V20.5658C39.9994 9.76751 31.8277 0.755844 21.3927 0.0458444ZM18.3327 21.6658C18.3327 25.3425 15.3427 28.3325 11.666 28.3325C10.746 28.3325 9.99936 27.5875 9.99936 26.6658C9.99936 25.7442 10.746 24.9992 11.666 24.9992C13.5044 24.9992 14.9994 23.5042 14.9994 21.6658H12.4994C11.1194 21.6658 9.99936 20.5458 9.99936 19.1658V16.6658C9.99936 14.8242 11.491 13.3325 13.3327 13.3325H15.8327C17.2127 13.3325 18.3327 14.4525 18.3327 15.8325V21.6658ZM29.9994 21.6658C29.9994 25.3425 27.0094 28.3325 23.3327 28.3325C22.411 28.3325 21.666 27.5875 21.666 26.6658C21.666 25.7442 22.411 24.9992 23.3327 24.9992C25.171 24.9992 26.666 23.5042 26.666 21.6658H24.166C22.786 21.6658 21.666 20.5458 21.666 19.1658V16.6658C21.666 14.8242 23.1577 13.3325 24.9994 13.3325H27.4994C28.8794 13.3325 29.9994 14.4525 29.9994 15.8325V21.6658Z" fill="#FF2CAF"/>
</g>
<defs>
<clipPath id="clip0_78_2469">
<rect width="40" height="40" fill="white"/>
</clipPath>
</defs>
</svg>
