<svg width="14" height="9" viewBox="0 0 14 9" fill="none" xmlns="http://www.w3.org/2000/svg">
<path d="M1.41385 0.5H12.5859C12.7836 0.500042 12.9769 0.558714 13.1413 0.668598C13.3057 0.778482 13.4339 0.934646 13.5095 1.11735C13.5852 1.30005 13.605 1.50108 13.5664 1.69503C13.5279 1.88898 13.4327 2.06715 13.2929 2.207L7.70685 7.793C7.51932 7.98047 7.26501 8.08579 6.99985 8.08579C6.73469 8.08579 6.48038 7.98047 6.29285 7.793L0.706849 2.207C0.56704 2.06715 0.471833 1.88898 0.433266 1.69503C0.394698 1.50108 0.414502 1.30005 0.490172 1.11735C0.565842 0.934646 0.693981 0.778482 0.858391 0.668598C1.0228 0.558714 1.2161 0.500042 1.41385 0.5Z" fill="#9388CA"/>
</svg>
