<svg width="20" height="24" viewBox="0 0 20 24" fill="none" xmlns="http://www.w3.org/2000/svg">
<path d="M10.0005 0.0419922C7.35447 0.0449033 4.81761 1.09727 2.94647 2.96822C1.07533 4.83918 0.0227075 7.37593 0.0195312 10.022C0.0195312 12.592 2.00953 16.614 5.93453 21.976C6.40179 22.6161 7.01359 23.1369 7.72013 23.4959C8.42668 23.8549 9.20801 24.042 10.0005 24.042C10.7931 24.042 11.5744 23.8549 12.2809 23.4959C12.9875 23.1369 13.5993 22.6161 14.0665 21.976C17.9915 16.614 19.9815 12.592 19.9815 10.022C19.9784 7.37593 18.9257 4.83918 17.0546 2.96822C15.1835 1.09727 12.6466 0.0449033 10.0005 0.0419922ZM10.0005 14C9.20941 14 8.43605 13.7654 7.77825 13.3259C7.12045 12.8863 6.60776 12.2616 6.30501 11.5307C6.00226 10.7998 5.92305 9.99556 6.07739 9.21963C6.23173 8.44371 6.61269 7.73098 7.1721 7.17157C7.73151 6.61216 8.44425 6.23119 9.22017 6.07685C9.99609 5.92251 10.8004 6.00172 11.5313 6.30448C12.2622 6.60723 12.8869 7.11992 13.3264 7.77771C13.7659 8.43551 14.0005 9.20887 14.0005 9.99999C14.0005 11.0609 13.5791 12.0783 12.829 12.8284C12.0788 13.5786 11.0614 14 10.0005 14Z" fill="black"/>
</svg>
