<svg width="25" height="24" viewBox="0 0 25 24" fill="none" xmlns="http://www.w3.org/2000/svg">
<g clip-path="url(#clip0_131_3260)">
<path d="M24.062 21.4452L19.4168 16.7981C22.8926 12.1533 21.9448 5.57034 17.3001 2.09462C12.6553 -1.3811 6.07229 -0.433388 2.59657 4.21139C-0.87915 8.85616 0.0685652 15.4392 4.71334 18.9149C8.44441 21.7069 13.5689 21.7069 17.3001 18.9149L21.9472 23.562C22.5312 24.146 23.478 24.146 24.0619 23.562C24.6459 22.978 24.6459 22.0312 24.0619 21.4472L24.062 21.4452ZM11.0454 18.0179C6.91737 18.0179 3.57096 14.6715 3.57096 10.5435C3.57096 6.41542 6.91737 3.06901 11.0454 3.06901C15.1735 3.06901 18.5199 6.41542 18.5199 10.5435C18.5155 14.6697 15.1717 18.0136 11.0454 18.0179Z" fill="#658692"/>
</g>
<defs>
<clipPath id="clip0_131_3260">
<rect width="24" height="24" fill="white" transform="translate(0.5)"/>
</clipPath>
</defs>
</svg>
