<svg width="25" height="25" viewBox="0 0 25 25" fill="none" xmlns="http://www.w3.org/2000/svg">
<path d="M12.9434 0.5C6.32636 0.5 0.943359 5.883 0.943359 12.5C0.943359 19.117 6.32636 24.5 12.9434 24.5C19.5604 24.5 24.9434 19.117 24.9434 12.5C24.9434 5.883 19.5604 0.5 12.9434 0.5ZM19.1434 11.012L14.7174 15.357C13.9344 16.125 12.9264 16.508 11.9174 16.508C10.9194 16.508 9.92136 16.132 9.14136 15.379L7.24236 13.512C6.84836 13.125 6.84336 12.492 7.23036 12.098C7.61636 11.703 8.25136 11.698 8.64436 12.086L10.5374 13.947C11.3134 14.697 12.5384 14.693 13.3184 13.929L17.7434 9.585C18.1364 9.197 18.7674 9.204 19.1574 9.598C19.5444 9.992 19.5384 10.625 19.1434 11.012Z" fill="#5CAB85"/>
</svg>
